<?xml version="1.0" standalone="no"?>
<!DOCTYPE svg PUBLIC "-//W3C//DTD SVG 1.1//EN" "http://www.w3.org/Graphics/SVG/1.1/DTD/svg11.dtd" >
<svg xmlns="http://www.w3.org/2000/svg" xmlns:xlink="http://www.w3.org/1999/xlink" version="1.1">
<metadata>
Created by FontForge 20170731 at Sun Mar 15 16:55:58 2020
 By Aleksey,,,
 (c) Adam Ericsson. All Rights Reserved.
</metadata>
<defs>
<font id="Adam-Bold" horiz-adv-x="560" >
  <font-face 
    font-family="Adam Bold"
    font-weight="300"
    font-stretch="normal"
    units-per-em="1000"
    panose-1="2 0 4 3 0 0 0 0 0 0"
    ascent="800"
    descent="-200"
    x-height="479"
    cap-height="680"
    bbox="-20 -212 896 770"
    underline-thickness="0"
    underline-position="0"
    unicode-range="U+0020-02DD"
  />
<missing-glyph horiz-adv-x="430" 
 />
    <glyph glyph-name=".notdef" horiz-adv-x="430" 
 />
    <glyph glyph-name=".notdef" horiz-adv-x="430" 
 />
    <glyph glyph-name=".null" horiz-adv-x="0" 
 />
    <glyph glyph-name="nonmarkingreturn" horiz-adv-x="333" 
 />
    <glyph glyph-name="space" unicode=" " horiz-adv-x="430" 
 />
    <glyph glyph-name="ltr33" unicode="!" horiz-adv-x="240" 
d="M100 39v-1v-40h80v40v1v40h-80v-40zM100 640v-450v-40h80v40v450v40h-80v-40z" />
    <glyph glyph-name="ltr34" unicode="&#x22;" horiz-adv-x="340" 
d="M180 640v-150v-40h80v40v150v40h-80v-40zM80 640v-150v-40h80v40v150v40h-80v-40z" />
    <glyph glyph-name="ltr35" unicode="#" horiz-adv-x="600" 
d="M487 451h53h40v80h-40h-34l23 100l11 49h-82l-7 -31l-28 -118h-157l23 100l11 49h-82l-7 -31l-28 -118h-123h-40v-80h40h105l-52 -220h-53h-40v-80h40h35l-24 -102l-11 -49h82l7 31l28 120h158l-24 -102l-11 -49h82l7 31l28 120h123h40v80h-40h-104zM405 451l-52 -220
h-157l51 220h158z" />
    <glyph glyph-name="ltr36" unicode="$" 
d="M320 677v53v40h-80v-40v-53q-98 -15 -150 -89q-32 -46 -32 -98q0 -89 121 -149q26 -13 61 -27v-230q-77 14 -108 64q-12 20 -12 42h-80q0 -79 72 -135q55 -43 128 -52v-53v-40h80v40v53q105 14 163 88q37 47 37 99q0 90 -121 151q-32 15 -79 33v221q67 -15 92 -65
q10 -20 10 -40h80q0 83 -71 140q-48 37 -111 47zM320 284q97 -38 114 -72q6 -11 6 -22q0 -55 -66 -88q-25 -13 -54 -18v200zM240 405q-90 37 -100 72q-2 7 -2 13q0 57 60 90q20 10 42 15v-190z" />
    <glyph glyph-name="ltr37" unicode="%" horiz-adv-x="640" 
d="M280 161q4 -130 109 -156q23 -5 49 -5q93 1 134 73q22 39 22 93q0 140 -95 180q-29 11 -62 12q-33 0 -60 -11l214 268l52 65h-102l-12 -15l-179 -223q9 34 8 74q3 116 -88 152q-30 11 -66 12q-94 1 -138 -67q-26 -41 -26 -98q0 -133 92 -175q33 -15 71 -15q35 0 64 13
l-218 -273l-52 -65h102l12 15l177 221q-8 -34 -8 -74v-1zM360 163q-1 81 43 107q15 8 32 8q59 -1 74 -69q5 -20 5 -43q0 -67 -54 -83q-12 -3 -24 -3q-60 -1 -73 58q-2 12 -3 25zM202 600q62 -1 74 -57q2 -12 2 -26v-1q1 -83 -48 -105q-13 -6 -27 -6q-54 0 -75 57
q-8 24 -8 53q0 61 50 80q15 5 32 5z" />
    <glyph glyph-name="ltr38" unicode="&#x26;" horiz-adv-x="640" 
d="M208 365q77 -107 177 -214q-59 -71 -128 -72q-98 -1 -138 70q-33 60 -6 125l3 6q20 38 92 85zM441 93q49 -48 93 -85l11 -9h125l-84 71q-46 39 -97 88q7 11 20 36q28 54 44 61q4 2 8 2l39 1v80l-41 -1q-39 -1 -101 -85q-12 -16 -26 -37q-97 100 -163 188q134 81 132 138
q0 81 -71 120q-36 19 -74 19q-68 -1 -109 -51q-29 -36 -31 -88v-1q0 -34 48 -110q-96 -64 -120 -116q-41 -88 -10 -177q34 -96 137 -127q40 -11 86 -11q102 1 184 94zM224 468q-28 47 -28 70q2 48 46 60q8 2 16 2q34 1 53 -27q10 -15 10 -33v-1q1 -20 -43 -43q-7 -4 -20 -11
q-23 -11 -34 -17z" />
    <glyph glyph-name="ltr39" unicode="'" horiz-adv-x="160" 
d="M60 640v-149v-40h80v40v149v40h-80v-40z" />
    <glyph glyph-name="ltr40" unicode="(" horiz-adv-x="280" 
d="M166 681q-86 -140 -110 -266q-15 -75 -16 -165q0 -263 128 -434l12 -16h100l-48 64q-112 151 -112 386q2 177 74 318q17 33 40 71l37 61h-93z" />
    <glyph glyph-name="ltr41" unicode=")" horiz-adv-x="280" 
d="M46 639q113 -190 114 -389q0 -183 -91 -349q-11 -21 -23 -39l-40 -62h96l12 18q92 143 118 325q8 54 8 107q-1 225 -126 431l-12 19h-93z" />
    <glyph glyph-name="ltr42" unicode="*" horiz-adv-x="500" 
d="M250 571l-49 88l-20 35l-69 -39l19 -34l51 -91h-102h-40v-80h40h102l-51 -92l-19 -34l69 -39l20 35l49 88l49 -88l20 -35l69 39l-19 34l-51 92h102h40v80h-40h-102l51 91l19 34l-69 39l-20 -35z" />
    <glyph glyph-name="ltr43" unicode="+" horiz-adv-x="460" 
d="M270 300h110h40v80h-40h-110v111v40h-80v-40v-111h-110h-40v-80h40h110v-110v-40h80v40v110z" />
    <glyph glyph-name="ltr44" unicode="," horiz-adv-x="240" 
d="M130 70q-8 -63 -36 -87l-84 -71h124l12 9q54 47 64 141l4 44h-80z" />
    <glyph glyph-name="ltr45" unicode="-" horiz-adv-x="340" 
d="M80 207h180h40v80h-40h-180h-40v-80h40z" />
    <glyph glyph-name="ltr46" unicode="." horiz-adv-x="240" 
d="M100 39v-1v-40h80v40v1v40h-80v-40z" />
    <glyph glyph-name="ltr47" unicode="/" horiz-adv-x="300" 
d="M202 651l-180 -601l-16 -51h84l8 29l180 601l16 51h-84z" />
    <glyph glyph-name="ltr48" unicode="0" horiz-adv-x="502" 
d="M40 350q0 -174 82 -277q59 -73 131 -74q78 0 138 87q71 104 71 264q0 172 -80 276q-59 73 -129 74q-80 0 -141 -88q-72 -103 -72 -262zM120 350q0 130 49 212q36 57 84 58q62 0 100 -99q29 -76 29 -171q0 -131 -48 -213q-34 -58 -81 -58q-65 0 -104 101q-29 76 -29 170z
" />
    <glyph glyph-name="ltr49" unicode="1" horiz-adv-x="284" 
d="M97 335l47 117v-413v-40h80v40v620v40h-67l-10 -25l-124 -309l-22 -55h86z" />
    <glyph glyph-name="ltr50" unicode="2" horiz-adv-x="502" 
d="M120 505q0 61 56 95q35 20 75 20q68 0 107 -49q24 -30 24 -66q0 -65 -87 -144q-21 -18 -66 -55q-100 -81 -137 -128q-52 -69 -52 -139v-40h382h40v80h-40h-302q0 42 76 101q16 13 52 39q110 80 152 131q62 75 62 155q0 88 -71 147q-60 48 -140 48q-101 0 -164 -72
q-47 -54 -47 -123v-40h80v40z" />
    <glyph glyph-name="ltr51" unicode="3" horiz-adv-x="500" 
d="M125 620h192l-111 -185l-36 -61h30h40q71 0 113 -59q27 -38 27 -85q0 -74 -55 -120q-38 -31 -85 -31q-73 0 -110 50q-13 18 -17 39l-5 33h-81l8 -47q13 -77 84 -122q53 -33 121 -33q97 0 163 76q57 67 57 155q0 98 -68 174q-45 49 -82 50l111 185l36 61h-30h-40h-262h-40
v-80h40z" />
    <glyph glyph-name="ltr52" unicode="4" horiz-adv-x="500" 
d="M204 675l-181 -464l-21 -55h18h40l256 -1v-116v-40h80v40v115h24h40v80h-40h-24v267v40h-80v-40v-266l-198 1l160 409l22 55h-86z" />
    <glyph glyph-name="ltr53" unicode="5" horiz-adv-x="520" 
d="M399 700h-229h-32l-7 -31l-65 -276v-1l-15 -48h3h81h2l8 34q17 43 65 66q25 11 50 11q69 0 111 -72q29 -51 29 -114q0 -94 -54 -151q-37 -39 -86 -39q-65 0 -104 53q-18 26 -22 53l-5 34h-81l6 -46q12 -79 79 -131q57 -43 127 -43q92 0 157 80q63 79 63 190
q0 125 -78 204q-62 62 -142 62q-42 0 -83 -20l25 105h197h40v80h-40z" />
    <glyph glyph-name="ltr54" unicode="6" horiz-adv-x="502" 
d="M235 697q-64 -27 -120 -135q-75 -146 -75 -320v-1v-40h3q15 -106 94 -164q53 -38 114 -38q92 0 155 77q56 70 56 165q0 113 -76 185q-59 55 -135 55q-53 -1 -98 -28q40 124 101 163q7 4 13 7l24 11v87zM120 241q0 80 52 128q35 32 79 32q66 0 105 -64q26 -44 26 -96
q0 -82 -53 -130q-35 -32 -78 -32q-66 0 -105 65q-26 44 -26 97z" />
    <glyph glyph-name="ltr55" unicode="7" horiz-adv-x="444" 
d="M60 620h255q-159 -280 -211 -551q-2 -12 -4 -23l-9 -47h81l6 33q44 239 175 489q29 56 66 119l34 60h-29h-364h-40v-80h40z" />
    <glyph glyph-name="ltr56" unicode="8" horiz-adv-x="502" 
d="M40 216q0 -100 74 -164q59 -52 137 -52q97 0 160 74q51 62 51 142q0 101 -73 167q-9 7 -17 13q65 53 66 130q0 83 -67 135q-52 39 -119 39q-90 0 -147 -65q-41 -49 -41 -109q2 -78 66 -130q-76 -56 -88 -152q-2 -14 -2 -28zM144 526q0 53 51 80q27 14 57 14q59 0 90 -44
q16 -23 16 -50q0 -50 -50 -77q-21 -11 -44 -13h-12h-12q-56 5 -83 47q-13 21 -13 43zM264 355q65 -6 99 -66q19 -34 19 -73q0 -69 -54 -110q-35 -26 -77 -26q-67 0 -106 57q-25 36 -25 79q0 71 54 113q30 23 65 26h13h12z" />
    <glyph glyph-name="ltr57" unicode="9" horiz-adv-x="502" 
d="M462 462v40h-3q-16 104 -95 161q-52 37 -113 37q-92 0 -155 -76q-56 -69 -56 -162q0 -111 76 -181q60 -53 136 -54q29 1 56 9q-34 -73 -92 -178l-32 -59h91l11 21q121 222 159 349q16 43 17 89v3v1zM382 462v-8q-1 -13 -3 -27q-15 -73 -72 -105q-26 -14 -55 -15
q-68 1 -107 64q-25 41 -25 91q0 79 52 127q35 31 79 31q67 0 105 -65q26 -42 26 -93z" />
    <glyph glyph-name="ltr58" unicode=":" horiz-adv-x="160" 
d="M47 89v-1v-40h80v40v1v40h-80v-40zM47 408v-1v-40h80v40v1v40h-80v-40z" />
    <glyph glyph-name="ltr59" unicode=";" horiz-adv-x="160" 
d="M90 57q-8 -78 -38 -108l-71 -69h115l12 11q52 52 62 158l4 44h-81zM66 408v-1v-40h80v40v1v40h-80v-40z" />
    <glyph glyph-name="ltr60" unicode="&#x3c;" horiz-adv-x="540" 
d="M445 527l-380 -150l-25 -10v-54l25 -10l380 -151l55 -22v86l-25 10l-286 114l286 113l25 10v86z" />
    <glyph glyph-name="ltr61" unicode="=" horiz-adv-x="540" 
d="M80 178h380h40v80h-40h-380h-40v-80h40zM80 397h380h40v80h-40h-380h-40v-80h40z" />
    <glyph glyph-name="ltr62" unicode="&#x3e;" horiz-adv-x="540" 
d="M65 453l286 -113l-286 -114l-25 -10v-86l55 22l380 151l25 10v54l-25 10l-380 150l-55 22v-86z" />
    <glyph glyph-name="ltr63" unicode="?" horiz-adv-x="460" 
d="M191 40v-2v-40h80v40v2v40h-80v-40zM120 491q0 68 55 97q26 12 54 12q63 -1 94 -50q17 -27 17 -60q0 -30 -40 -65q-49 -43 -61 -57q-48 -58 -48 -139v-39v-40h80v40v36v1q0 43 47 87q5 6 17 16q53 49 70 85q15 34 15 75q0 101 -79 156q-49 33 -110 34q-95 1 -150 -66
q-41 -50 -41 -123v-40h80v40z" />
    <glyph glyph-name="ltr64" unicode="@" horiz-adv-x="1030" 
d="M481 419q48 0 67 -54q15 -44 2 -97q-46 -164 -139 -173q-5 -1 -8 -1q-56 -2 -76 54q-15 43 1 98h1q36 137 116 166q17 7 36 7zM481 499q-110 0 -180 -111q-31 -51 -50 -120q-40 -139 33 -210q48 -45 121 -44q60 2 111 44q11 -54 67 -73q73 -26 155 30q7 5 13 9
q61 42 104 129q37 75 37 144q0 157 -108 272q-106 114 -262 129q-21 2 -41 2q-159 0 -278 -111q-119 -110 -139 -273q-4 -30 -4 -59q0 -171 110 -297q104 -121 257 -141q28 -4 54 -4q234 0 366 129q13 14 24 27l25 30l-61 51l-26 -31q-83 -101 -250 -121q-38 -5 -78 -5
q-137 0 -236 101t-105 246v15q0 147 96 252q94 104 229 111h16q135 0 232 -93q96 -99 99 -230q0 -85 -63 -165q-23 -27 -45 -43l-1 -1q-88 -68 -106 -33q-6 11 -2 32q35 163 76 364l8 39l-78 16l-8 -39v-1v-1l-1 -2v-1v-1v-1l-1 -1v-1v-1v-1v-1l-1 -1v-2q-46 47 -109 47z
" />
    <glyph glyph-name="ltr65" unicode="A" horiz-adv-x="640" 
d="M97 24l223 515l223 -515l11 -24h87l-24 56l-260 600l-11 24h-52l-11 -24l-260 -600l-24 -56h87z" />
    <glyph glyph-name="ltr66" unicode="B" horiz-adv-x="640" 
d="M500 353q63 58 64 137q0 84 -69 142q-59 48 -136 48l-218 -1h-40v-40l-1 -299v-40v-260v-40h40h256q96 0 157 70q47 53 47 120q0 86 -70 143q-14 11 -30 20zM180 379v221h179q64 0 102 -47q23 -29 23 -63q0 -57 -54 -90q-33 -20 -71 -20zM181 300h178h37q65 0 102 -47
q22 -29 22 -63q0 -57 -54 -90q-32 -20 -70 -20l-215 -1v221z" />
    <glyph glyph-name="ltr67" unicode="C" horiz-adv-x="640" 
d="M525 184q-32 -57 -104 -87q-41 -17 -82 -17q-97 0 -162 85q-57 76 -57 175q0 115 72 193q63 66 147 67q82 0 146 -56q25 -23 37 -47l72 36q-36 70 -122 114q-66 33 -133 33q-120 0 -206 -94q-93 -100 -93 -246q0 -145 92 -245q87 -94 207 -95q108 0 198 76q37 32 58 68z
" />
    <glyph glyph-name="ltr68" unicode="D" horiz-adv-x="680" 
d="M140 0h220h2h2q113 10 189 106q78 102 67 234q12 136 -70 237q-75 92 -186 103h-2h-222h-40v-40v-600v-40h40zM180 80v520h178q89 -8 142 -91q47 -74 40 -166v-3q9 -110 -55 -189q-52 -64 -127 -71h-178z" />
    <glyph glyph-name="ltr69" unicode="E" horiz-adv-x="640" 
d="M540 680h-400h-40v-40v-260v-80v-260v-40h40h400h40v80h-40h-360v220h252h40v80h-40h-252v220h360h40v80h-40z" />
    <glyph glyph-name="ltr70" unicode="F" horiz-adv-x="540" 
d="M480 680h-340h-40v-40v-260v-80v-260v-40h80v40v260h206h40v80h-40h-206v220h300h40v80h-40z" />
    <glyph glyph-name="ltr71" unicode="G" horiz-adv-x="720" 
d="M362 300h218q0 -78 -62 -146q-68 -73 -157 -74q-98 0 -164 85q-57 75 -57 175q0 116 73 193q63 66 148 67q82 1 146 -56q24 -23 37 -47l72 36q-36 71 -121 114q-66 33 -134 33q-120 0 -208 -94q-92 -102 -93 -246q0 -145 92 -245q89 -94 209 -95q119 0 206 94
q93 101 93 246v40h-298v-80z" />
    <glyph glyph-name="ltr72" unicode="H" horiz-adv-x="700" 
d="M600 300v80v260v40h-80v-40v-260h-340v260v40h-80v-40v-260v-80v-260v-40h80v40v260h340v-260v-40h80v40v260z" />
    <glyph glyph-name="ltr73" unicode="I" horiz-adv-x="240" 
d="M86 640v-600v-40h80v40v600v40h-80v-40z" />
    <glyph glyph-name="ltr74" unicode="J" horiz-adv-x="500" 
d="M340 640v-451q-1 -55 -51 -88q-32 -21 -69 -21q-65 0 -101 50q-18 27 -19 59v40h-80v-40q1 -88 70 -144q56 -45 130 -45q91 0 153 70q46 53 47 118v1v451v40h-80v-40z" />
    <glyph glyph-name="ltr75" unicode="K" horiz-adv-x="620" 
d="M224 300l288 -288l11 -12h114l-69 68l-271 272l271 272l69 68h-114l-11 -12l-288 -288h-44v260v40h-80v-40v-260v-80v-260v-40h80v40v260h44z" />
    <glyph glyph-name="ltr76" unicode="L" horiz-adv-x="520" 
d="M100 640v-600v-40h40h320h40v80h-40h-280v560v40h-80v-40z" />
    <glyph glyph-name="ltr77" unicode="M" horiz-adv-x="820" 
d="M180 40v414l194 -430l10 -24h52l10 24l193 430l1 -414v-40h80v40l-1 600v40h-66l-10 -24l-233 -518l-234 518l-10 24h-66v-40v-600v-40h80v40z" />
    <glyph glyph-name="ltr78" unicode="N" horiz-adv-x="700" 
d="M180 40v473l346 -496l12 -17h61v40l1 600v40h-80v-40l-1 -473l-346 496l-12 17h-61v-40v-600v-40h80v40z" />
    <glyph glyph-name="ltr79" unicode="O" horiz-adv-x="720" 
d="M60 340q0 -145 92 -245q88 -94 208 -95q120 0 207 94q93 101 93 246t-92 245q-88 94 -208 95q-120 0 -207 -94q-93 -101 -93 -246zM140 340q0 115 73 193q63 66 147 67q97 0 162 -84q58 -76 58 -176q0 -115 -73 -193q-63 -66 -147 -67q-97 0 -162 84q-58 76 -58 176z" />
    <glyph glyph-name="ltr80" unicode="P" horiz-adv-x="640" 
d="M100 300v-260v-40h80v40v260h215q97 0 158 69q47 53 47 120q0 86 -70 143q-59 48 -135 48l-254 -1h-40v-40l-1 -299v-40zM180 379v221h215q66 0 103 -48q22 -29 22 -63q0 -59 -56 -91q-32 -18 -69 -18z" />
    <glyph glyph-name="ltr81" unicode="Q" horiz-adv-x="720" 
d="M60 340q0 -145 92 -245q88 -94 208 -95q101 1 182 70l48 -56l26 -30l60 52l-26 30l-55 63q65 93 65 211q0 145 -92 245q-88 94 -208 95q-120 0 -207 -94q-93 -101 -93 -246zM140 340q0 115 73 193q63 66 147 67q97 0 162 -84q58 -76 58 -176q-1 -81 -39 -148l-21 24
l-26 30l-60 -52l26 -30l30 -34q-59 -50 -130 -50q-97 0 -162 84q-58 76 -58 176z" />
    <glyph glyph-name="ltr82" unicode="R" horiz-adv-x="660" 
d="M481 317q79 34 107 109q12 31 12 63q0 86 -70 143q-58 48 -136 48l-253 -1h-40v-40l-1 -299v-40v-260v-40h80v40v260h201q49 -37 81 -104q27 -58 60 -167l8 -29h84l-16 51q-59 198 -117 266zM268 379h-88v221h214q67 0 104 -48q22 -29 22 -63q0 -59 -56 -91
q-32 -18 -69 -18h-128z" />
    <glyph glyph-name="ltr83" unicode="S" 
d="M502 490q0 83 -72 140q-64 50 -150 50q-108 0 -174 -72q-48 -53 -48 -118q0 -89 121 -149q23 -11 141 -57q97 -38 114 -72q6 -11 6 -22q0 -55 -65 -88q-44 -22 -95 -22q-81 0 -130 46q-29 29 -30 64h-80q0 -78 71 -135q71 -55 169 -55q113 0 186 72q53 54 54 118
q0 90 -121 151q-24 11 -143 58q-96 37 -113 70q-5 11 -5 21q0 58 61 90q38 20 81 20q74 0 117 -47q25 -28 25 -63h80z" />
    <glyph glyph-name="ltr84" unicode="T" 
d="M321 680h-80h-181h-40v-80h40h181v-560v-40h80v40v560h179h40v80h-40h-179z" />
    <glyph glyph-name="ltr85" unicode="U" horiz-adv-x="640" 
d="M80 640v-413q0 -98 76 -165q70 -62 164 -62q108 0 180 77q60 66 60 150l1 412l1 40h-81l-1 -39v-413q0 -72 -62 -116q-44 -31 -98 -31q-79 0 -127 58q-33 40 -33 89l1 412l1 40h-81z" />
    <glyph glyph-name="ltr86" unicode="V" horiz-adv-x="640" 
d="M23 624l261 -600l11 -24h52l11 24l259 600l24 56h-87l-11 -24l-222 -515l-224 515l-11 24h-87z" />
    <glyph glyph-name="ltr87" unicode="W" horiz-adv-x="840" 
d="M21 631l132 -600l7 -31h60l9 26l191 501l191 -501l9 -26h60l7 31l132 600l11 49h-82l-7 -31l-103 -469l-181 474l-9 26h-56l-9 -26l-181 -474l-103 469l-7 31h-82z" />
    <glyph glyph-name="ltr88" unicode="X" 
d="M280 423l-169 240l-12 17h-98l44 -63l186 -264l-204 -290l-44 -63h98l12 17l187 266l187 -266l12 -17h98l-44 63l-204 290l186 264l44 63h-98l-12 -17z" />
    <glyph glyph-name="ltr89" unicode="Y" horiz-adv-x="540" 
d="M312 329l182 290l38 61h-94l-12 -19l-154 -246l-158 247l-12 18h-95l39 -62l186 -291v-287v-40h80v40v289z" />
    <glyph glyph-name="ltr90" unicode="Z" horiz-adv-x="520" 
d="M77 600h293l-344 -538l-39 -62h33h40h400h40v80h-40h-327l344 538l39 62h-33h-40h-366h-40v-80h40z" />
    <glyph glyph-name="ltr91" unicode="[" horiz-adv-x="340" 
d="M280 680h-140h-40v-40v-800v-40h40h140h40v80h-40h-100v720h100h40v80h-40z" />
    <glyph glyph-name="ltr92" unicode="\" horiz-adv-x="300" 
d="M21 649l180 -640l9 -29h83l-14 51l-180 640l-9 29h-83z" />
    <glyph glyph-name="ltr93" unicode="]" horiz-adv-x="360" 
d="M80 600h100v-720h-100h-40v-80h40h140h40v40v800v40h-40h-140h-40v-80h40z" />
    <glyph glyph-name="ltr94" unicode="^" horiz-adv-x="460" 
d="M116 322l115 229l113 -229l11 -22h90l-29 58l-149 300l-11 22h-50l-11 -22l-151 -300l-29 -58h90z" />
    <glyph glyph-name="ltr95" unicode="_" horiz-adv-x="520" 
d="M20 -200h480h40v80h-40h-480h-40v-80h40z" />
    <glyph glyph-name="ltr96" unicode="`" horiz-adv-x="220" 
d="M62 627l50 -149l9 -27h85l-18 53l-50 149l-9 27h-85z" />
    <glyph glyph-name="ltr97" unicode="a" 
d="M40 240q0 -111 77 -182q62 -58 143 -58q79 1 140 55v-15v-40h80v40v200v200v40h-80v-40v-15q-62 55 -140 55q-96 0 -161 -77q-59 -69 -59 -163zM120 240q0 79 56 128q37 32 84 32q69 0 111 -63q29 -44 29 -97q0 -79 -56 -128q-37 -32 -84 -32q-69 0 -111 63
q-29 44 -29 97z" />
    <glyph glyph-name="ltr98" unicode="b" 
d="M80 239v-199v-40h80v40v15q62 -55 140 -55q96 0 161 77q59 69 59 163q0 111 -77 182q-62 58 -143 58q-79 -1 -140 -55v255v40h-80v-40v-441zM160 239q0 80 56 129q38 32 84 32q69 0 111 -63q29 -44 29 -97q0 -79 -56 -128q-37 -32 -84 -32q-70 0 -112 63q-28 43 -28 96z
" />
    <glyph glyph-name="ltr99" unicode="c" horiz-adv-x="480" 
d="M368 138q-45 -57 -113 -58q-69 0 -109 65q-26 43 -26 95q0 81 54 128q35 32 81 32q77 -1 112 -52l66 46q-61 85 -178 86q-94 0 -158 -77q-57 -69 -57 -163q0 -112 76 -183q61 -57 139 -57q113 1 177 92z" />
    <glyph glyph-name="ltr100" unicode="d" 
d="M40 240q0 -111 77 -182q62 -58 143 -58q79 1 140 55v-15v-40h80v40v200v440v40h-80v-40v-255q-62 55 -140 55q-96 0 -161 -77q-59 -69 -59 -163zM120 240q0 79 56 128q37 32 84 32q69 0 111 -63q29 -44 29 -97q0 -79 -56 -128q-37 -32 -84 -32q-69 0 -111 63
q-29 44 -29 97z" />
    <glyph glyph-name="ltr101" unicode="e" horiz-adv-x="520" 
d="M382 142q-48 -62 -122 -62q-70 0 -112 64q-17 26 -24 56h316h40v40q0 111 -77 182q-62 58 -143 58q-97 0 -163 -78q-57 -69 -57 -162q0 -111 76 -182q63 -58 144 -58q116 0 186 94zM124 280q17 74 77 105q28 15 59 15q66 0 113 -57q27 -34 27 -63h-276z" />
    <glyph glyph-name="ltr102" unicode="f" horiz-adv-x="300" 
d="M168 480q10 140 72 141h40v80h-40q-108 0 -141 -137q-9 -38 -12 -84h-27h-40v-80h40h26v-360v-40h80v40v360h74h40v80h-40h-72z" />
    <glyph glyph-name="ltr103" unicode="g" 
d="M40 240q0 -111 77 -182q62 -58 143 -58q79 1 140 55v-15q0 -65 -44 -117q-41 -48 -95 -49h-40v-80h40q38 0 73 15.5t61 41t45.5 57.5t29.5 66t10 66l1 399l1 40h-81l-1 -39v-15q-62 55 -140 55q-96 0 -161 -77q-59 -69 -59 -163zM120 240q0 79 56 128q37 32 84 32
q69 0 111 -63q29 -44 29 -97q0 -79 -56 -128q-37 -32 -84 -32q-69 0 -111 63q-29 44 -29 97z" />
    <glyph glyph-name="ltr104" unicode="h" horiz-adv-x="540" 
d="M160 442v174v40h-80v-40v-343v-40v-193v-40h80v40v193v40q0 67 48 105q28 22 62 22q58 0 91 -55q19 -33 19 -72l1 -234l1 -40h79l-1 41v233q0 100 -71 161q-52 46 -119 46q-61 -1 -110 -38z" />
    <glyph glyph-name="ltr105" unicode="i" horiz-adv-x="200" 
d="M105 541h1h40v80h-40h-1h-40v-80h40zM65 440v-400v-40h80v40v400v40h-80v-40z" />
    <glyph glyph-name="ltr106" unicode="j" horiz-adv-x="262" 
d="M142 538h1h40v80h-40h-1h-40v-80h40zM102 440v-400q0 -154 -37 -165q-3 -1 -5 -1h-40v-80h40q48 0 84 63q38 70 38 183l1 399l1 40h-81z" />
    <glyph glyph-name="ltr107" unicode="k" horiz-adv-x="480" 
d="M174 200l198 -189l12 -11h116l-72 69l-180 171l180 171l72 69h-116l-12 -11l-198 -189h-14v400v40h-80v-40v-400v-80v-160v-40h80v40v160h14z" />
    <glyph glyph-name="ltr108" unicode="l" horiz-adv-x="193" 
d="M80 680v-640v-40h80v40v640v40h-80v-40z" />
    <glyph glyph-name="ltr109" unicode="m" horiz-adv-x="792" 
d="M396 410q-56 68 -138 70q-54 -1 -98 -32v32h-80v-40v-152v-40v-208v-40h80v40v208v40q0 61 44 94q25 18 54 18q54 0 83 -51q15 -29 15 -61v-40l1 -209l1 -40h79l-1 41v208v40q0 61 44 94q25 18 54 18q54 0 83 -51q15 -29 15 -61l1 -249l1 -40h79l-1 41v248q0 93 -68 151
q-49 41 -110 41q-82 0 -136 -68q-1 -2 -2 -2z" />
    <glyph glyph-name="ltr110" unicode="n" horiz-adv-x="540" 
d="M460 40v233q0 100 -71 161q-52 46 -119 46q-61 -1 -110 -38v38h-80v-40v-167v-40v-193v-40h80v40v193v40q0 67 48 105q28 22 62 22q58 0 91 -55q19 -33 19 -72l1 -234l1 -40h79z" />
    <glyph glyph-name="ltr111" unicode="o" horiz-adv-x="520" 
d="M40 240q0 -111 77 -182q62 -58 143 -58q96 0 161 77q59 69 59 163q0 111 -77 182q-62 58 -143 58q-96 0 -161 -77q-59 -69 -59 -163zM120 240q0 79 56 128q37 32 84 32q69 0 111 -63q29 -44 29 -97q0 -79 -56 -128q-37 -32 -84 -32q-69 0 -111 63q-29 44 -29 97z" />
    <glyph glyph-name="ltr112" unicode="p" 
d="M80 241v-1v-406v-40h80v40v221q62 -55 140 -55q96 0 161 77q59 69 59 163q0 111 -77 182q-62 58 -142 58t-141 -55v15v40h-80v-40v-199zM160 240q2 81 57 129q38 31 84 31q68 0 110 -63q29 -44 29 -97q0 -79 -56 -128q-37 -32 -84 -32q-69 0 -111 63q-29 44 -29 97z" />
    <glyph glyph-name="ltr113" unicode="q" 
d="M40 240q0 -111 77 -182q62 -58 143 -58q79 1 140 55v-221v-40h80v40v406v200v40h-80v-40v-15q-62 55 -140 55q-96 0 -161 -77q-59 -69 -59 -163zM120 240q0 79 56 128q37 32 84 32q69 0 111 -63q29 -44 29 -97q0 -79 -56 -128q-37 -32 -84 -32q-69 0 -111 63
q-29 44 -29 97z" />
    <glyph glyph-name="ltr114" unicode="r" horiz-adv-x="338" 
d="M160 438v2v40h-80v-40v-195v-5v-40v-160v-40h80v40v160v40v6q1 102 68 139q27 15 60 15h40v80h-40q-75 -1 -128 -42z" />
    <glyph glyph-name="ltr115" unicode="s" horiz-adv-x="452" 
d="M397 341q0 64 -60 106q-48 33 -111 33q-91 0 -141 -60q-30 -37 -30 -79q1 -79 107 -122q25 -10 74 -25q77 -23 91 -40q5 -8 5 -15q0 -38 -60 -53q-23 -6 -46 -6q-66 0 -94 31q-12 13 -12 28h-80q0 -62 61 -104q53 -35 125 -35q102 0 156 63q30 36 30 76q1 77 -105 120
q-24 10 -74 25q-78 24 -92 41q-6 8 -6 16q0 37 50 53q20 6 41 6q55 0 80 -31q11 -13 11 -28h80z" />
    <glyph glyph-name="ltr116" unicode="t" horiz-adv-x="300" 
d="M168 400h72h40v80h-40h-72v104l1 40h-81l-1 -39v-105h-27h-40v-80h40h27v-259v-1q0 -111 100 -134q25 -6 53 -6h40v80h-40q-72 2 -73 61z" />
    <glyph glyph-name="ltr117" unicode="u" horiz-adv-x="507" 
d="M60 440v-257q0 -85 69 -140q54 -43 125 -43q94 0 151 69q42 50 42 114l1 256l1 40h-81l-1 -39v-257q0 -55 -51 -86q-29 -17 -62 -17q-60 0 -95 46q-19 26 -19 57l1 256l1 40h-81z" />
    <glyph glyph-name="ltr118" unicode="v" horiz-adv-x="480" 
d="M43 425l161 -400l10 -25h54l10 25l159 400l22 55h-86l-10 -25l-122 -307l-124 307l-10 25h-86z" />
    <glyph glyph-name="ltr119" unicode="w" horiz-adv-x="720" 
d="M41 429l112 -400l9 -29h57l10 25l131 312l131 -312l10 -25h57l9 29l112 400l14 51h-83l-9 -29l-81 -290l-123 294l-10 25h-54l-10 -25l-123 -294l-81 290l-9 29h-83z" />
    <glyph glyph-name="ltr120" unicode="x" horiz-adv-x="480" 
d="M290 253l123 163l48 64h-100l-12 -16l-109 -145l-109 145l-12 16h-100l48 -64l123 -163l-142 -189l-48 -64h100l12 16l128 170l128 -170l12 -16h100l-48 64z" />
    <glyph glyph-name="ltr121" unicode="y" horiz-adv-x="440" 
d="M323 454l-112 -300l-114 300l-9 26h-86l21 -54l146 -387q-34 -113 -58 -141q-20 -24 -51 -24h-40v-80h40q67 0 105 45q43 52 84 188l148 399l21 54h-86z" />
    <glyph glyph-name="ltr122" unicode="z" horiz-adv-x="440" 
d="M98 400h171l-222 -338l-41 -62h34h40h280h40v80h-40h-206l222 338l41 62h-34h-40h-245h-40v-80h40z" />
    <glyph glyph-name="ltr123" unicode="{" horiz-adv-x="400" 
d="M340 720q-69 0 -110 -91q-30 -68 -30 -156q-5 -120 -68 -185l-29 -29l17 -16q75 -74 80 -193q0 -132 57 -204q36 -44 82 -46l41 -1v80l-39 1q-61 3 -61 171v1q-3 121 -49 192q-8 11 -14 17q28 27 48 106q13 51 15 104q1 168 60 169h40v80h-40z" />
    <glyph glyph-name="ltr124" unicode="|" horiz-adv-x="200" 
d="M80 660v-832v-40h80v40v832v40h-80v-40z" />
    <glyph glyph-name="ltr125" unicode="}" horiz-adv-x="400" 
d="M59 640q51 -1 51 -116q0 -10 -1 -29v-23v-1q6 -106 58 -193q9 -14 14 -19q-27 -25 -50 -90q-19 -55 -22 -116v-1q0 -9 1 -31q3 -97 -16 -124q-13 -16 -34 -17h-40v-80h40q129 2 129 250q5 111 79 181l12 12v35q-78 70 -90 179q-1 8 -1 16q0 169 -68 225q-27 21 -60 22
l-41 1v-80z" />
    <glyph glyph-name="ltr126" unicode="~" horiz-adv-x="500" 
d="M100 216q2 31 29 44q13 6 27 6q20 0 67 -35q64 -48 107 -53q8 -1 15 -1q84 0 120 68q15 30 15 62v40h-80v-40q0 -32 -30 -45q-12 -5 -25 -5q-17 0 -61 33q-66 50 -112 55q-9 1 -16 1q-88 0 -123 -74q-12 -27 -13 -54l-1 -41h80z" />
    <glyph glyph-name="ltr168" unicode="&#xa8;" horiz-adv-x="260" 
d="M220 640v1v40h-80v-40v-1v-40h80v40zM120 640v1v40h-80v-40v-1v-40h80v40z" />
    <glyph glyph-name="ltr184" unicode="&#xb8;" horiz-adv-x="280" 
d="M101 19l-15 -57l-13 -50h12h40q31 0 34 -11q1 -2 1 -4v-1q-4 -13 -20 -16l-60 -1h-40v-79h40h59q56 0 86 46q15 23 15 50q0 53 -41 85q-13 10 -22 11l2 7l13 50h-83z" />
    <glyph glyph-name="ltr305" unicode="&#x131;" horiz-adv-x="200" 
d="M145 40v400v40h-80v-40v-400v-40h80v40z" />
    <glyph glyph-name="ltr710" unicode="&#x2c6;" horiz-adv-x="280" 
d="M114 524l26 42l26 -42l12 -18h95l-39 62l-60 94l-12 18h-44l-12 -18l-60 -94l-39 -62h95z" />
    <glyph glyph-name="ltr711" unicode="&#x2c7;" horiz-adv-x="280" 
d="M46 618l60 -94l12 -18h44l12 18l60 94l39 62h-95l-12 -18l-26 -42l-26 42l-12 18h-95z" />
    <glyph glyph-name="ltr713" unicode="&#x2c9;" horiz-adv-x="280" 
d="M80 506h120h40v80h-40h-120h-40v-80h40z" />
    <glyph glyph-name="ltr714" unicode="&#x2ca;" horiz-adv-x="200" 
d="M95 659l-50 -94l-32 -59h91l11 21l50 94l32 59h-91z" />
    <glyph glyph-name="ltr715" unicode="&#x2cb;" horiz-adv-x="200" 
d="M45 621l50 -94l11 -21h91l-32 59l-50 94l-11 21h-91z" />
    <glyph glyph-name="ltr717" unicode="&#x2cd;" horiz-adv-x="280" 
d="M80 -120h120h40v80h-40h-120h-40v-80h40z" />
    <glyph glyph-name="ltr727" unicode="&#x2d7;" horiz-adv-x="320" 
d="M80 162h160h40v80h-40h-160h-40v-80h40z" />
    <glyph glyph-name="ltr728" unicode="&#x2d8;" horiz-adv-x="300" 
d="M40 640q0 -72 51 -105q32 -19 65 -10q48 0 82 49q22 32 22 66h-80q0 -22 -19 -32q-6 -3 -11 -3h-6q-21 -6 -24 25v10h-80z" />
    <glyph glyph-name="ltr729" unicode="&#x2d9;" horiz-adv-x="280" 
d="M180 640v1v40h-80v-40v-1v-40h80v40z" />
    <glyph glyph-name="ltr730" unicode="&#x2da;" horiz-adv-x="240" 
d="M40 583q0 -59 44 -85q18 -11 36 -10q38 -2 63 35q17 26 17 59q0 62 -46 88q-17 10 -34 10h-1q-39 0 -63 -38q-16 -26 -16 -59zM120 583v-1l4 -12q0 -2 -2 -2h-2q-8 0 -4 10q2 4 4 5zM120 583q0 1 -1 3t-2 5.5t-0.5 6t2.5 2.5q4 0 4 -4t-1 -8z" />
    <glyph glyph-name="ltr731" unicode="&#x2db;" horiz-adv-x="220" 
d="M76 32l-22 -45q-14 -35 -14 -59v-1q0 -95 52 -106q35 -6 75 29l29 27l-53 59l-30 -26q-4 -4 -4 4q-1 16 6 27q3 5 4 -3q1 -4 1 -11q0 10 6.5 26.5t12.5 28.5l6 11l20 34l-70 40z" />
    <glyph glyph-name="ltr732" unicode="&#x2dc;" horiz-adv-x="340" 
d="M120 583q1 16 5 17q1 0 3 -6q20 -50 86 -51q44 0 70 41q16 25 16 56h-80q-1 -16 -5 -17q-1 0 -3 6q-21 50 -87 51h-1q-41 0 -67 -40q-17 -25 -17 -57h80z" />
    <glyph glyph-name="ltr733" unicode="&#x2dd;" horiz-adv-x="320" 
d="M111 663l-64 -94l-43 -63h96h1h96l12 17l64 94l43 63h-96h-1h-96z" />
  </font>
</defs>
</svg>
