<?xml version="1.0" encoding="utf-8"?>
<!-- Generator: Adobe Illustrator 27.9.0, SVG Export Plug-In . SVG Version: 6.00 Build 0)  -->
<svg version="1.1" id="Layer_2_00000011000652243996720800000013267972589815362458_"
	 xmlns="http://www.w3.org/2000/svg" xmlns:xlink="http://www.w3.org/1999/xlink" x="0px" y="0px" viewBox="0 0 141.8 141.8"
	 style="enable-background:new 0 0 141.8 141.8;" xml:space="preserve">
<style type="text/css">
	.st0{fill:#FFFFFF;}
</style>
<g>
	<polygon class="st0" points="40.7,118.5 40.7,118.5 40.7,118.5 	"/>
	<path class="st0" d="M140.1,10.6l-8.9-8.9c-0.6-0.6-1.5-0.6-2.1,0l-8.3,8.2c-3.4,3.4-4.8,6.3-5.4,8.1l-43,43.6
		c-8.2-4.8-18.8-3.8-25.9,2.7c-2.6,2.4-4,5.5-5.4,8.4c-1.3,2.9-2.6,5.7-5,7.7c-2.5,2.2-5.6,2.1-9,2l-0.1,0c-1.8,0-3.6-0.1-5.5,0.2
		c-5.9,0.9-11.4,3.7-15.4,7.7c-4.2,4.2-5.7,10.6-4.3,17.9c1.4,7.1,5.5,14.3,11.5,20.3c6,6,13.2,10,20.3,11.5
		c1.8,0.4,3.6,0.5,5.2,0.5l2.7,0l-0.2-0.1c4-0.5,7.5-2.1,10.1-4.7c1.6-1.6,3.5-4.2,5-6.9c1.9-3.4,3-7.6,3-11.7c0-0.8,0-1.6-0.1-2.3
		c-0.1-2.9-0.2-5.4,1.1-7.7c1.7-3.1,5-4.6,8.4-6.2c2.8-1.3,5.6-2.6,7.8-4.8c7.1-7.1,8.5-18,3.4-26.6l43.4-43c2-0.6,4.9-2.1,8.3-5.5
		l8.3-8.3C140.7,12.2,140.7,11.2,140.1,10.6z M56.3,114.9c0,0.7,0.1,1.5,0.1,2.2c0,3.6-0.9,7.3-2.6,10.2c-1.4,2.4-3.1,4.8-4.5,6.2
		c-3.5,3.5-8.9,4.7-15.2,3.5c-6.5-1.3-13.2-5.1-18.7-10.6c-5.6-5.6-9.3-12.2-10.6-18.7c-1.2-6.3,0-11.7,3.5-15.2
		c3.6-3.6,8.5-6,13.8-6.9c0.9-0.1,1.9-0.2,3.1-0.2c0.6,0,1.3,0,1.9,0c3.6,0.1,7.6,0.2,11.1-2.7c2.8-2.4,4.3-5.6,5.7-8.6l0-0.1
		c1.2-2.7,2.5-5.5,4.7-7.4c5.5-5.1,13.9-6.3,20.7-3.2l-19,18.4c-2.5,0-4.9,1-6.7,2.8c-2.2,2.2-3.1,5.2-2.7,8.1l-10.1,10.1l-3.4-3.4
		c-0.9-0.9-2.4-0.9-3.3,0c-0.9,0.9-0.9,2.4,0,3.3L39,117.9c0.5,0.5,1.1,0.7,1.7,0.7c0.6,0,1.2-0.2,1.7-0.7c0.4-0.4,0.7-1,0.7-1.7
		c0-0.6-0.2-1.2-0.7-1.7l-3.4-3.4L49.1,101c0.4,0.1,0.8,0.1,1.2,0.1c2.5,0,5-0.9,6.8-2.8c1.8-1.8,2.8-4.2,2.8-6.7l18.4-18.9
		c3.3,7.1,1.8,15.6-3.8,21.2c-1.9,1.9-4.5,3-7,4.2c-3.7,1.7-7.6,3.5-9.8,7.4C56.1,108.6,56.2,111.9,56.3,114.9z M44.2,85.3
		c1.3-1.3,3.1-2.2,4.9-2.5l-0.6,0.5l1.3,0.2l-8.2,8.2C41.6,89.4,42.4,87.1,44.2,85.3z M115.9,20.6l0.2,0.2l0.4,0.4l-4.4,4.4
		l-0.7-0.7L115.9,20.6z M89.4,49.7l5.2-5.2l1,1l-5.2,5.2L89.4,49.7z M89.7,51.4l-5.3,5.3l-1-1l5.3-5.3L89.7,51.4z M95.3,43.8
		l5.2-5.2l1,1l-5.2,5.2L95.3,43.8z M96.3,46.1l1,1l-5.2,5.2l-1-1L96.3,46.1z M97,45.5l5.2-5.2l1,1L98,46.5L97,45.5z M102.9,39.5
		l5.1-5.1l1,1l-5.1,5.1L102.9,39.5z M108.7,33.7l5.1-5.1l1,1l-5.1,5.1L108.7,33.7z M114.5,27.9l4.4-4.4l1,1l-4.4,4.4L114.5,27.9z
		 M117.2,21.9l0.1,0.1l0.9,0.9l-4.4,4.4l-1-1L117.2,21.9z M113.2,27.9L108,33l-1-1l5.1-5.1L113.2,27.9z M107.4,33.7l-5.1,5.1l-1-1
		l5.1-5.1L107.4,33.7z M100.5,37.1l-0.6-0.6l5.1-5.2l0.7,0.7L100.5,37.1z M99.9,37.8l-5.2,5.2L94,42.5l5.2-5.3L99.9,37.8z
		 M93.9,43.8L88.7,49l-0.5-0.5l5.2-5.3L93.9,43.8z M88,49.7L82.7,55l-0.5-0.5l5.2-5.3L88,49.7z M82,55.6l-5.2,5.2l-0.5-0.5l5.2-5.3
		L82,55.6z M82.7,56.3l1,1l-5.2,5.2l-1-1L82.7,56.3z M77.8,63.3l-5.2,5.2l-1-1l5.2-5.2L77.8,63.3z M71.9,69.2l-5.3,5.3l-1-1l5.3-5.3
		L71.9,69.2z M35.1,107.3l8.7-8.7c0.4,0.3,0.7,0.6,1.1,0.9l-8.8,8.8L35.1,107.3z M60.1,87.1c-0.1-0.3-0.3-0.6-0.5-0.9l2.7-2.7
		l0.6,0.6L60.1,87.1z M59.1,85.3c-0.3-0.4-0.6-0.8-0.9-1.1l2.5-2.5l1,1L59.1,85.3z M57.5,83.5c-0.4-0.3-0.7-0.6-1.1-0.9l2.6-2.6l1,1
		L57.5,83.5z M55.6,82.1c-0.3-0.2-0.6-0.3-0.9-0.5l3-2.9l0.6,0.6L55.6,82.1z M58.4,78.1l5.3-5.2l0.6,0.6L59,78.7L58.4,78.1z
		 M55.4,85.7L43.9,97.2c-0.3-0.4-0.6-0.8-0.9-1.2l11.2-11.2C54.6,85.1,55,85.4,55.4,85.7z M43.2,97.9l-8.7,8.7l-1-1l8.8-8.8
		C42.5,97.2,42.8,97.6,43.2,97.9z M44.5,97.9l11.5-11.5c0.3,0.4,0.6,0.8,0.9,1.2L45.7,98.8C45.3,98.5,44.9,98.2,44.5,97.9z
		 M63.7,83.4l-0.6-0.6l5.2-5.2l0.6,0.6L63.7,83.4z M62.4,82.1l-1-1l5.2-5.2l1,1L62.4,82.1z M60.7,80.4l-1-1l5.2-5.2l1,1L60.7,80.4z
		 M64.9,72.8l-0.5-0.5l5.3-5.2l0.5,0.5L64.9,72.8z M51,83.8l0.5,0.1c0.6,0.1,1.2,0.3,1.8,0.5L42.5,95.2c-0.3-0.7-0.6-1.4-0.7-2.2
		L51,83.8z M41.8,95.9l-9,9l-1.4-1.4l9.7-9.7C41.2,94.5,41.4,95.3,41.8,95.9z M41.7,115.2c0.3,0.3,0.4,0.6,0.4,1s-0.1,0.7-0.4,1
		c-0.5,0.5-1.4,0.5-2,0l-15.1-15.1c-0.5-0.5-0.5-1.4,0-2c0.3-0.3,0.6-0.4,1-0.4h0c0.3,0,0.7,0.1,1,0.4L41.7,115.2z M36.8,109l9-9
		c0.7,0.4,1.4,0.6,2.1,0.8l-9.7,9.7L36.8,109z M46.6,99.3l10.8-10.8c0.2,0.6,0.4,1.2,0.5,1.8l0.1,0.5l-9.2,9.2
		C48,99.8,47.3,99.6,46.6,99.3z M58.2,91.9l0.2,1.3l0.5-0.5c-0.3,1.8-1.1,3.6-2.4,4.9c-1.8,1.8-4.2,2.6-6.5,2.5L58.2,91.9z
		 M69.6,77.4L69,76.8l5.3-5.3l0.5,0.5L69.6,77.4z M68.3,76.2l-1-1l5.3-5.3l1,1L68.3,76.2z M73.3,69.2l5.2-5.2l1,1l-5.2,5.2
		L73.3,69.2z M79.2,63.3l5.2-5.2l1,1l-5.2,5.2L79.2,63.3z M85.1,57.3l5.3-5.3l1,1l-5.3,5.3L85.1,57.3z M92.1,53.8l0.5,0.5l-5.3,5.2
		L86.8,59L92.1,53.8z M92.8,53.1l5.2-5.2l0.6,0.6l-5.3,5.2L92.8,53.1z M98.7,47.2l5.2-5.2l0.6,0.6l-5.3,5.2L98.7,47.2z M104.6,41.2
		l5.1-5.1l0.6,0.6l-5.2,5.1L104.6,41.2z M110.4,35.4l5.1-5.1l0.7,0.7l-5.1,5.1L110.4,35.4z M116.2,29.6l4.4-4.4l0.7,0.7l-4.4,4.3
		L116.2,29.6z M110.8,25.6l0.7,0.7l-5.1,5.1l-0.7-0.7l3.2-3.3L110.8,25.6z M74.1,62.7l1.6-1.6l0.5,0.5l-5.2,5.2l-0.4-0.4L74.1,62.7
		L74.1,62.7z M79.1,67.6l-3.6,3.7L75,70.9l5.2-5.2l0.5,0.5L79.1,67.6L79.1,67.6z M80.9,65l5.2-5.2l0.5,0.5l-5.3,5.2L80.9,65z
		 M127,21.2c0.1-0.2,0.2-0.4,0.2-0.6c0-0.3-0.1-0.6-0.4-0.9c-0.5-0.5-1.2-0.5-1.7,0c-0.5,0.5-0.5,1.2,0,1.7c0.2,0.2,0.5,0.4,0.9,0.4
		c0.1,0,0.2,0,0.2,0c-1.2,0.8-2.3,1.4-3.2,1.7l-4.7-4.7c0.3-0.7,0.8-1.8,1.6-3c0,0.3,0.1,0.6,0.3,0.8c0.2,0.2,0.5,0.3,0.9,0.3v0
		c0.3,0,0.6-0.1,0.9-0.4c0.5-0.5,0.5-1.2,0-1.7c-0.3-0.3-0.8-0.4-1.2-0.3c0.6-0.8,1.3-1.6,2.2-2.5l7.2-7.2l6.8,6.8l-7.2,7.2
		C128.7,19.8,127.8,20.6,127,21.2z M126.2,20.6c0,0,0,0.1-0.1,0.2c-0.1,0.1-0.2,0.1-0.3,0c-0.1-0.1-0.1-0.2,0-0.3
		c0,0,0.1-0.1,0.2-0.1c0.1,0,0.1,0,0.2,0.1C126.2,20.5,126.2,20.6,126.2,20.6z M120.8,15.7c0,0,0-0.1,0.1-0.2
		c0.1-0.1,0.2-0.1,0.2-0.1h0c0,0,0.1,0,0.2,0.1c0.1,0.1,0.1,0.2,0,0.3c-0.1,0.1-0.2,0.1-0.3,0C120.8,15.8,120.8,15.7,120.8,15.7z"/>
	<path class="st0" d="M129,8.9c0.3,0,0.6-0.1,0.9-0.4c0.5-0.5,0.5-1.2,0-1.7c-0.5-0.5-1.2-0.5-1.7,0c-0.2,0.2-0.4,0.5-0.4,0.9
		c0,0.3,0.1,0.6,0.4,0.9C128.4,8.8,128.7,8.9,129,8.9L129,8.9z M128.9,7.9c-0.1-0.1-0.1-0.1-0.1-0.2c0,0,0-0.1,0.1-0.2
		c0.1-0.1,0.2-0.1,0.2-0.1h0c0,0,0.1,0,0.2,0.1c0.1,0.1,0.1,0.2,0,0.3C129.1,8,129,8,128.9,7.9z"/>
	<path class="st0" d="M124.3,10.7c-0.5,0.5-0.5,1.2,0,1.7c0.2,0.2,0.5,0.4,0.9,0.4c0.3,0,0.6-0.1,0.9-0.4c0.2-0.2,0.4-0.5,0.4-0.9
		c0-0.3-0.1-0.6-0.4-0.9C125.6,10.3,124.8,10.3,124.3,10.7z M125.3,11.8c-0.1,0.1-0.2,0.1-0.3,0c-0.1-0.1-0.1-0.2,0-0.3
		c0.1-0.1,0.2-0.1,0.2-0.1h0c0,0,0.1,0,0.2,0.1s0.1,0.1,0.1,0.2C125.4,11.6,125.4,11.7,125.3,11.8z"/>
	<path class="st0" d="M134.8,11.8c-0.5-0.5-1.2-0.5-1.7,0c-0.5,0.5-0.5,1.2,0,1.7c0.2,0.2,0.5,0.4,0.9,0.4c0.3,0,0.6-0.1,0.9-0.4
		c0.2-0.2,0.4-0.5,0.4-0.9C135.2,12.3,135.1,12,134.8,11.8z M134.1,12.8c-0.1,0.1-0.2,0.1-0.3,0c-0.1-0.1-0.1-0.2,0-0.3
		c0,0,0.1-0.1,0.2-0.1c0.1,0,0.1,0,0.2,0.1c0.1,0.1,0.1,0.1,0.1,0.2C134.2,12.7,134.2,12.7,134.1,12.8z"/>
	<path class="st0" d="M129.2,15.7c-0.2,0.2-0.4,0.5-0.4,0.9c0,0.3,0.1,0.6,0.4,0.9c0.2,0.2,0.5,0.3,0.9,0.3c0.3,0,0.6-0.1,0.9-0.3
		c0.2-0.2,0.4-0.5,0.4-0.9c0-0.3-0.1-0.6-0.4-0.9C130.5,15.2,129.7,15.2,129.2,15.7z M130.3,16.7c-0.1,0.1-0.2,0.1-0.3,0
		c-0.1-0.1-0.1-0.1-0.1-0.2c0,0,0-0.1,0.1-0.2c0.1-0.1,0.2-0.1,0.2-0.1v0c0,0,0.1,0,0.2,0.1s0.1,0.1,0.1,0.2
		C130.3,16.5,130.3,16.6,130.3,16.7z"/>
</g>
</svg>
