<?xml version="1.0" encoding="UTF-8"?>
<svg id="Layer_2" data-name="Layer 2" xmlns="http://www.w3.org/2000/svg" viewBox="0 0 141.77 141.77">
  <defs>
    <style>
      .cls-1 {
        fill: #fff;
      }
    </style>
  </defs>
  <g id="Layer_1-2" data-name="Layer 1">
    <g id="Live_icon" data-name="Live icon">
      <path class="cls-1" d="m37.67,141.77c-1.66,0-3.4-.18-5.19-.53-7.12-1.42-14.37-5.52-20.4-11.55S1.95,116.42.53,109.29c-1.43-7.2.04-13.42,4.14-17.53,4-4,9.45-6.73,15.34-7.67,1.85-.3,3.74-.25,5.58-.21,3.66.09,7.12.17,10.05-2.33,2.57-2.19,3.95-5.15,5.4-8.29,1.38-2.97,2.81-6.04,5.34-8.36,6.96-6.35,17.49-7.41,25.61-2.56l.56.33-20.4,19.76c1.72.44,3.28,1.34,4.56,2.61s2.17,2.84,2.61,4.57l19.8-20.34.33.56c5.05,8.48,3.69,19.29-3.3,26.28-2.16,2.16-5.02,3.48-7.79,4.76-3.72,1.72-7.24,3.35-9.2,6.85-1.5,2.68-1.39,5.52-1.27,8.54.03.79.06,1.59.06,2.38,0,4.1-1.05,8.22-2.96,11.58-1.53,2.7-3.4,5.27-5,6.87h0c-3.08,3.08-7.35,4.67-12.33,4.67Zm-14.1-56.92c-1.15,0-2.29.05-3.4.23-5.68.91-10.94,3.54-14.79,7.39-3.86,3.86-5.23,9.76-3.87,16.62,1.38,6.93,5.38,13.99,11.27,19.88,5.89,5.89,12.95,9.9,19.89,11.28,6.86,1.37,12.77,0,16.62-3.87,1.52-1.52,3.37-4.07,4.84-6.66,1.83-3.21,2.84-7.15,2.83-11.08,0-.78-.03-1.57-.06-2.35-.12-3.02-.24-6.14,1.4-9.06,2.11-3.78,5.95-5.55,9.65-7.26,2.69-1.24,5.46-2.52,7.5-4.56,6.51-6.51,7.89-16.49,3.47-24.49l-20.23,20.79-.16-.98c-.3-1.9-1.18-3.61-2.53-4.97s-3.07-2.23-4.96-2.53l-.99-.16,20.85-20.2c-7.66-4.24-17.38-3.14-23.86,2.77-2.39,2.18-3.77,5.16-5.11,8.04-1.44,3.09-2.92,6.29-5.66,8.63-3.22,2.75-7.04,2.66-10.72,2.57-.66-.02-1.32-.03-1.99-.03Z"/>
      <path class="cls-1" d="m58.7,91.71l-.16-.98c-.3-1.9-1.18-3.61-2.53-4.97s-3.07-2.23-4.96-2.53l-.99-.16,21.33-20.66,46.7-45.6.42.28,6.64,6.64-45.76,46.71-20.69,21.26Zm-6.54-9.27c1.72.44,3.28,1.34,4.56,2.61,1.28,1.28,2.17,2.84,2.61,4.57l19.34-19.88,45.07-46-5.59-5.59-46.06,44.98-19.93,19.3Z"/>
      <path class="cls-1" d="m49.65,102.11c-2.56,0-5.12-.97-7.07-2.92-3.9-3.9-3.9-10.24,0-14.14,2.25-2.25,5.48-3.3,8.63-2.81,2.09.33,4,1.3,5.51,2.81s2.48,3.41,2.81,5.52c.49,3.15-.56,6.37-2.81,8.62-1.95,1.95-4.51,2.92-7.07,2.92Zm.02-18.99c-2.37,0-4.68.94-6.38,2.64-3.51,3.51-3.51,9.22,0,12.72,3.51,3.51,9.22,3.51,12.72,0h0c2.02-2.02,2.97-4.92,2.53-7.76-.3-1.89-1.18-3.61-2.53-4.97s-3.07-2.23-4.96-2.53c-.46-.07-.92-.11-1.38-.11Z"/>
      <path class="cls-1" d="m39.68,120.13c-.62,0-1.25-.24-1.72-.71l-15.61-15.61c-.95-.95-.95-2.49,0-3.44.95-.95,2.49-.95,3.44,0l15.6,15.61c.46.46.71,1.07.71,1.72s-.25,1.26-.71,1.72c-.47.47-1.1.71-1.72.71Zm-15.61-19.46c-.37,0-.73.14-1.01.42-.56.56-.56,1.47,0,2.02l15.61,15.61c.54.54,1.48.54,2.02,0,.27-.27.42-.63.42-1.01s-.15-.74-.42-1.01l-15.6-15.61c-.28-.28-.65-.42-1.01-.42Z"/>
      <path class="cls-1" d="m124.36,24.16c-.13,0-.26-.05-.35-.15l-6.06-6.06s-.05-.02-.08-.03c-.2-.11-.33-.31-.27-.53.42-1.59,1.71-4.85,5.58-8.72L131.71.15c.2-.2.51-.2.71,0l9.21,9.21c.2.2.2.51,0,.71l-8.53,8.53c-3.6,3.6-6.66,5.01-8.6,5.55-.04.01-.09.02-.14.02Zm-5.68-6.89l5.83,5.83c1.83-.57,4.61-1.94,7.88-5.21l8.18-8.18-8.5-8.5-8.18,8.18c-3.42,3.42-4.72,6.29-5.21,7.89Z"/>
      <rect class="cls-1" x="13.26" y="62.31" width="124.35" height="1" transform="translate(-22.31 71.74) rotate(-45)"/>
      <rect class="cls-1" x="15.02" y="64.07" width="124.35" height="1" transform="translate(-23.04 73.5) rotate(-45)"/>
      <rect class="cls-1" x="16.79" y="65.83" width="124.35" height="1" transform="translate(-23.78 75.26) rotate(-45)"/>
      <rect class="cls-1" x="59.9" y="75.93" width="1" height="11.06" transform="translate(-39.91 66.57) rotate(-45)"/>
      <rect class="cls-1" x="66.03" y="69.8" width="1" height="11.06" transform="translate(-33.78 69.11) rotate(-45)"/>
      <rect class="cls-1" x="72.17" y="63.66" width="1" height="11.06" transform="translate(-27.64 71.65) rotate(-45)"/>
      <rect class="cls-1" x="78.3" y="57.98" width="1" height="10.15" transform="translate(-21.51 74.19) rotate(-45)"/>
      <rect class="cls-1" x="84.43" y="51.97" width="1" height="9.92" transform="translate(-15.38 76.73) rotate(-45)"/>
      <rect class="cls-1" x="90.57" y="45.95" width="1" height="9.68" transform="translate(-9.24 79.27) rotate(-45)"/>
      <rect class="cls-1" x="96.7" y="39.94" width="1" height="9.44" transform="translate(-3.11 81.81) rotate(-45)"/>
      <rect class="cls-1" x="102.83" y="33.92" width="1" height="9.21" transform="translate(3.02 84.35) rotate(-45)"/>
      <rect class="cls-1" x="108.83" y="27.93" width="1" height="9.21" transform="translate(9.02 86.83) rotate(-45)"/>
      <rect class="cls-1" x="114.82" y="21.94" width="1" height="9.21" transform="translate(15.01 89.32) rotate(-45)"/>
      <rect class="cls-1" x="24.76" y="93.16" width="30.9" height="1" transform="translate(-54.45 55.86) rotate(-45)"/>
      <rect class="cls-1" x="32.67" y="101.07" width="30.9" height="1" transform="translate(-57.73 63.77) rotate(-45)"/>
      <g>
        <path class="cls-1" d="m130.98,6.84c-.32,0-.64-.12-.88-.36s-.37-.55-.37-.88.13-.65.37-.88c.47-.47,1.29-.47,1.76,0s.49,1.28,0,1.76h0c-.24.24-.56.37-.88.37Zm0-1.49s-.11,0-.17.07-.07.14-.07.18,0,.11.07.17c.1.1.25.1.35,0,.1-.1.1-.25,0-.35-.06-.06-.14-.07-.17-.07Z"/>
        <path class="cls-1" d="m126.98,10.85c-.33,0-.65-.13-.88-.37-.49-.49-.49-1.28,0-1.76.47-.47,1.29-.47,1.76,0,.24.24.37.55.37.88s-.13.65-.37.88c-.24.24-.55.37-.88.37Zm0-1.49s-.11,0-.17.07c-.1.1-.1.25,0,.35.13.13.22.12.35,0h0c.06-.06.07-.14.07-.18s0-.11-.07-.17-.14-.07-.17-.07Z"/>
        <path class="cls-1" d="m122.73,15.09c-.32,0-.64-.12-.88-.36s-.37-.55-.37-.88.13-.65.37-.88c.47-.47,1.29-.47,1.76,0s.49,1.28,0,1.76h0c-.24.24-.56.37-.88.37Zm0-1.49s-.11,0-.17.07-.07.14-.07.18,0,.11.07.17c.1.1.25.1.35,0,.1-.1.1-.25,0-.35-.06-.06-.14-.07-.17-.07Z"/>
        <path class="cls-1" d="m136.08,11.94c-.33,0-.65-.13-.88-.37-.49-.49-.49-1.28,0-1.76.49-.49,1.28-.49,1.76,0,.24.24.37.55.37.88s-.13.65-.37.88c-.24.24-.55.37-.88.37Zm0-1.49c-.06,0-.13.02-.18.07-.1.1-.1.25,0,.35.13.13.22.12.35,0h0c.06-.06.07-.14.07-.18s0-.11-.07-.17c-.05-.05-.11-.07-.17-.07Z"/>
        <path class="cls-1" d="m132.07,15.94c-.32,0-.64-.12-.88-.36s-.37-.55-.37-.88.13-.65.37-.88c.47-.47,1.29-.47,1.76,0,.24.24.37.55.37.88s-.13.65-.37.88h0c-.24.24-.56.36-.88.36Zm0-1.49s-.11,0-.17.07-.07.14-.07.18,0,.11.07.17c.1.1.25.1.35,0,.06-.06.07-.14.07-.17s0-.11-.07-.17-.14-.07-.18-.07Z"/>
        <path class="cls-1" d="m127.82,20.19c-.33,0-.65-.13-.88-.37-.49-.49-.49-1.28,0-1.76.49-.49,1.28-.49,1.76,0,.24.24.37.55.37.88s-.13.65-.37.88c-.24.24-.55.37-.88.37Zm0-1.49c-.06,0-.13.02-.18.07-.1.1-.1.25,0,.35.13.13.22.12.35,0h0c.06-.06.07-.14.07-.18s0-.11-.07-.17c-.05-.05-.11-.07-.17-.07Z"/>
      </g>
    </g>
  </g>
</svg>