<?xml version="1.0" encoding="UTF-8"?>
<svg id="Layer_2" data-name="Layer 2" xmlns="http://www.w3.org/2000/svg" viewBox="0 0 189.97 134.06">
  <defs>
    <style>
      .cls-1 {
        fill: #fff;
      }
    </style>
  </defs>
  <g id="Layer_1-2" data-name="Layer 1">
    <g id="Projection_icon" data-name="Projection icon">
      <path class="cls-1" d="m164.61,99.36H25.35c-10.45,0-18.95-8.5-18.95-18.95V18.95C6.41,8.5,14.91,0,25.35,0h139.26c10.45,0,18.95,8.5,18.95,18.95v61.46c0,10.45-8.5,18.95-18.95,18.95ZM25.35,1C15.46,1,7.41,9.05,7.41,18.95v61.46c0,9.9,8.05,17.95,17.95,17.95h139.26c9.9,0,17.95-8.05,17.95-17.95V18.95c0-9.9-8.05-17.95-17.95-17.95H25.35Z"/>
      <path class="cls-1" d="m164.07,91.9H25.89c-7.17,0-13-5.83-13-13V20.46c0-7.17,5.83-13,13-13h138.18c7.17,0,13,5.83,13,13v58.44c0,7.17-5.83,13-13,13ZM25.89,8.46c-6.62,0-12,5.38-12,12v58.44c0,6.62,5.38,12,12,12h138.18c6.62,0,12-5.38,12-12V20.46c0-6.62-5.38-12-12-12H25.89Z"/>
      <path class="cls-1" d="m24.62,134.06h-1c0-6.24-5.07-11.31-11.31-11.31s-11.31,5.07-11.31,11.31H0c0-6.79,5.52-12.31,12.31-12.31s12.31,5.52,12.31,12.31Z"/>
      <path class="cls-1" d="m48.24,134.06h-1c0-6.24-5.07-11.31-11.31-11.31s-11.31,5.07-11.31,11.31h-1c0-6.79,5.52-12.31,12.31-12.31s12.31,5.52,12.31,12.31Z"/>
      <path class="cls-1" d="m71.86,134.06h-1c0-6.24-5.07-11.31-11.31-11.31s-11.31,5.07-11.31,11.31h-1c0-6.79,5.52-12.31,12.31-12.31s12.31,5.52,12.31,12.31Z"/>
      <path class="cls-1" d="m95.48,134.06h-1c0-6.24-5.07-11.31-11.31-11.31s-11.31,5.07-11.31,11.31h-1c0-6.79,5.52-12.31,12.31-12.31s12.31,5.52,12.31,12.31Z"/>
      <path class="cls-1" d="m119.1,134.06h-1c0-6.24-5.07-11.31-11.31-11.31s-11.31,5.07-11.31,11.31h-1c0-6.79,5.52-12.31,12.31-12.31s12.31,5.52,12.31,12.31Z"/>
      <path class="cls-1" d="m142.73,134.06h-1c0-6.24-5.07-11.31-11.31-11.31s-11.31,5.07-11.31,11.31h-1c0-6.79,5.52-12.31,12.31-12.31s12.31,5.52,12.31,12.31Z"/>
      <path class="cls-1" d="m166.35,134.06h-1c0-6.24-5.07-11.31-11.31-11.31s-11.31,5.07-11.31,11.31h-1c0-6.79,5.52-12.31,12.31-12.31s12.31,5.52,12.31,12.31Z"/>
      <path class="cls-1" d="m189.97,134.06h-1c0-6.24-5.07-11.31-11.31-11.31s-11.31,5.07-11.31,11.31h-1c0-6.79,5.52-12.31,12.31-12.31s12.31,5.52,12.31,12.31Z"/>
      <path class="cls-1" d="m32.43,122.25h-1c0-5.6-4.41-10.16-9.83-10.16s-9.83,4.56-9.83,10.16h-1c0-6.15,4.86-11.16,10.83-11.16s10.83,5.01,10.83,11.16Z"/>
      <path class="cls-1" d="m53.09,122.25h-1c0-5.6-4.41-10.16-9.83-10.16s-9.83,4.56-9.83,10.16h-1c0-6.15,4.86-11.16,10.83-11.16s10.83,5.01,10.83,11.16Z"/>
      <path class="cls-1" d="m73.76,122.25h-1c0-5.6-4.41-10.16-9.83-10.16s-9.83,4.56-9.83,10.16h-1c0-6.15,4.86-11.16,10.83-11.16s10.83,5.01,10.83,11.16Z"/>
      <path class="cls-1" d="m94.42,122.25h-1c0-5.6-4.41-10.16-9.83-10.16s-9.83,4.56-9.83,10.16h-1c0-6.15,4.86-11.16,10.83-11.16s10.83,5.01,10.83,11.16Z"/>
      <path class="cls-1" d="m115.08,122.25h-1c0-5.6-4.41-10.16-9.83-10.16s-9.83,4.56-9.83,10.16h-1c0-6.15,4.86-11.16,10.83-11.16s10.83,5.01,10.83,11.16Z"/>
      <path class="cls-1" d="m135.75,122.25h-1c0-5.6-4.41-10.16-9.83-10.16s-9.83,4.56-9.83,10.16h-1c0-6.15,4.86-11.16,10.83-11.16s10.83,5.01,10.83,11.16Z"/>
      <path class="cls-1" d="m156.41,122.25h-1c0-5.6-4.41-10.16-9.83-10.16s-9.83,4.56-9.83,10.16h-1c0-6.15,4.86-11.16,10.83-11.16s10.83,5.01,10.83,11.16Z"/>
      <path class="cls-1" d="m177.08,122.25h-1c0-5.6-4.41-10.16-9.83-10.16s-9.83,4.56-9.83,10.16h-1c0-6.15,4.86-11.16,10.83-11.16s10.83,5.01,10.83,11.16Z"/>
    </g>
  </g>
</svg>