<?xml version="1.0" encoding="utf-8"?>
<!-- Generator: Adobe Illustrator 27.9.0, SVG Export Plug-In . SVG Version: 6.00 Build 0)  -->
<svg version="1.1" id="Layer_2_00000099620852213948887350000000883666603212179357_"
	 xmlns="http://www.w3.org/2000/svg" xmlns:xlink="http://www.w3.org/1999/xlink" x="0px" y="0px" viewBox="0 0 190 134.1"
	 style="enable-background:new 0 0 190 134.1;" xml:space="preserve">
<style type="text/css">
	.st0{fill:#FFFFFF;}
</style>
<g>
	<path class="st0" d="M26.4,99.9h137.2c10.8,0,19.7-8.8,19.7-19.7V19.7c0-10.8-8.8-19.7-19.7-19.7H26.4C15.5,0,6.7,8.8,6.7,19.7
		v60.6C6.7,91.1,15.5,99.9,26.4,99.9z M180.3,19.7v60.6c0,9.2-7.5,16.7-16.7,16.7H26.4c-9.2,0-16.7-7.5-16.7-16.7V19.7
		C9.7,10.4,17.2,3,26.4,3h137.2C172.8,3,180.3,10.4,180.3,19.7z"/>
	<path class="st0" d="M13.1,21.1v57.6c0,7.6,6.2,13.8,13.8,13.8h136.1c7.6,0,13.8-6.2,13.8-13.8V21.1c0-7.6-6.2-13.8-13.8-13.8H26.9
		C19.3,7.4,13.1,13.5,13.1,21.1z M163.1,89.6H26.9c-6,0-10.8-4.9-10.8-10.8V21.1c0-6,4.9-10.8,10.8-10.8h136.1
		c6,0,10.8,4.9,10.8,10.8v57.6C173.9,84.7,169,89.6,163.1,89.6z"/>
	<path class="st0" d="M176.8,120c-0.7-5.9-5.6-10.5-11.6-10.5c-4.4,0-8.2,2.5-10.2,6.2c-2-3.7-5.8-6.2-10.2-6.2
		c-4.4,0-8.2,2.5-10.2,6.2c-2-3.7-5.8-6.2-10.2-6.2c-4.4,0-8.2,2.5-10.2,6.2c-2-3.7-5.8-6.2-10.2-6.2c-4.4,0-8.2,2.5-10.2,6.2
		c-2-3.7-5.8-6.2-10.2-6.2c-4.4,0-8.2,2.5-10.2,6.2c-2-3.7-5.8-6.2-10.2-6.2c-4.4,0-8.2,2.5-10.2,6.2c-2-3.7-5.8-6.2-10.2-6.2
		c-4.4,0-8.2,2.5-10.2,6.2c-2-3.7-5.8-6.2-10.2-6.2c-6,0-11,4.7-11.6,10.7c-6.1,1.1-10.7,6.5-10.7,12.9v1h3v-1
		c0-5.6,4.6-10.2,10.2-10.2s10.2,4.6,10.2,10.2v1h3v-1c0-5.6,4.6-10.2,10.2-10.2c5.6,0,10.2,4.6,10.2,10.2v1h3v-1
		c0-5.6,4.6-10.2,10.2-10.2c5.6,0,10.2,4.6,10.2,10.2v1h3v-1c0-5.6,4.6-10.2,10.2-10.2c5.6,0,10.2,4.6,10.2,10.2v1h3h0v-1
		c0,0,0,0,0,0c0-5.6,4.6-10.1,10.2-10.1c5.6,0,10.2,4.6,10.2,10.2v1h0h2.9h0v-1c0-5.6,4.6-10.2,10.2-10.2c5.6,0,10.2,4.6,10.2,10.2
		v1h3v-1c0-5.6,4.6-10.2,10.2-10.2s10.2,4.6,10.2,10.2v1h3v-1c0-5.6,4.6-10.2,10.2-10.2c5.6,0,10.2,4.6,10.2,10.2v1h3v-1
		C189.6,126,183.8,120.1,176.8,120z M153.2,120c-5.1,0-9.4,2.9-11.6,7.1c-1.2-2.3-3.1-4.3-5.4-5.5v-0.1c0-5,3.9-9,8.7-9
		c4.3,0,7.9,3.3,8.6,7.6C153.3,120,153.3,120,153.2,120z M165.2,112.4c4.4,0,8,3.4,8.6,7.8c-3.9,0.8-7.2,3.4-9,6.8
		c-1.7-3.2-4.7-5.7-8.2-6.6C157.1,115.9,160.7,112.4,165.2,112.4z M43,112.4c4.8,0,8.7,4,8.7,9v1h0h0.7c-1.7,1.2-3.1,2.8-4,4.6
		c-2.2-4.2-6.6-7.1-11.6-7.1c-0.8,0-1.6,0.1-2.4,0.2C35,115.8,38.6,112.4,43,112.4z M75.1,122.4v-1c0-5,3.9-9,8.7-9
		c4.8,0,8.7,4,8.7,9v1h3v-1c0-5,3.9-9,8.7-9c4.8,0,8.7,4,8.7,9v0.1c-1.8-1-4-1.6-6.2-1.6c-5.1,0-9.4,2.9-11.6,7.1
		c-2.2-4.2-6.6-7.1-11.6-7.1c-5.1,0-9.5,2.9-11.6,7.1c-2.2-4.2-6.6-7.1-11.6-7.1c-1.9,0-3.7,0.4-5.4,1.2c0.2-4.8,4-8.7,8.7-8.7
		c4.8,0,8.7,4,8.7,9v1H75.1z M115.8,122.4L115.8,122.4l0-1c0-5,3.9-9,8.7-9c4.5,0,8.1,3.5,8.6,8c-1-0.3-2.1-0.4-3.2-0.4
		c-5.1,0-9.5,2.9-11.6,7.1c-1-1.8-2.3-3.4-4-4.6H115.8z M31.4,121.2c-2.7,1.2-4.9,3.3-6.2,5.9c-2.1-4-6.2-6.9-11.1-7.1
		c0.7-4.3,4.3-7.6,8.6-7.6C27.4,112.4,31.2,116.3,31.4,121.2z"/>
</g>
</svg>
