<?xml version="1.0" encoding="UTF-8"?>
<svg id="Layer_2" data-name="Layer 2" xmlns="http://www.w3.org/2000/svg" viewBox="0 0 138 144.98">
  <defs>
    <style>
      .cls-1 {
        fill: #fff;
      }
    </style>
  </defs>
  <g id="Layer_1-2" data-name="Layer 1">
    <g id="PULSE">
      <path class="cls-1" d="m69.9,129.44c-.06,0-.13,0-.19,0-4.53-.45-6.83-17.23-10.22-44.56-1.11-8.93-2.25-18.17-3.56-26.84-1.53-10.05-3.12-11.19-3.73-11.22-.01,0-.02,0-.03,0-3,0-7.32,17.75-10.47,30.72-2.78,11.43-5.4,22.22-7.58,24.83-2.52,3.03-6.06,4.09-10.23,3.07-7.93-1.94-15.17-2.89-22.13-2.89H0v-1h1.75c7.04,0,14.36.96,22.37,2.92,3.82.94,6.93.02,9.23-2.74,2.03-2.43,4.63-13.12,7.38-24.43,4.62-19,7.92-31.49,11.45-31.49.02,0,.04,0,.07,0,1.33.06,3.07,1.48,4.68,12.07,1.32,8.69,2.46,17.93,3.57,26.87,2.63,21.28,5.36,43.29,9.32,43.69.88.06,2.79-1.09,5.77-10.01,2.36-7.06,4.29-13.6,6-19.37,4.19-14.19,6.18-20.5,8.95-20.5.01,0,.03,0,.05,0,2.21.05,4.18,4.51,6.82,15.39,2.12,8.74,4.41,13.38,7,14.17,2.42.73,5.15-1.77,8.32-4.67,3.57-3.26,7.61-6.96,12.41-6.96h12.88v1h-12.88c-4.41,0-8.3,3.56-11.73,6.7-3.39,3.1-6.32,5.79-9.28,4.88-3.04-.93-5.41-5.52-7.68-14.89-2.34-9.67-4.32-14.59-5.87-14.63h-.02c-2.14,0-4.73,8.73-7.99,19.78-1.71,5.78-3.64,12.33-6,19.41-2.43,7.29-4.54,10.7-6.62,10.7Z"/>
      <path class="cls-1" d="m69.9,144.98c-.06,0-.13,0-.19,0-4.53-.45-6.83-17.23-10.22-44.56-1.11-8.93-2.25-18.17-3.56-26.84-1.53-10.05-3.12-11.19-3.73-11.22-3-.1-7.34,17.7-10.5,30.72-2.78,11.43-5.4,22.22-7.58,24.83-2.52,3.03-6.06,4.09-10.23,3.07-7.93-1.94-15.17-2.89-22.13-2.89H0v-1h1.75c7.04,0,14.36.96,22.37,2.92,3.83.93,6.93.02,9.23-2.74,2.03-2.43,4.63-13.12,7.38-24.43,4.62-19,7.92-31.49,11.45-31.49.02,0,.04,0,.07,0,1.33.06,3.07,1.48,4.68,12.07,1.32,8.69,2.46,17.93,3.57,26.87,2.63,21.29,5.36,43.29,9.32,43.69.88.07,2.79-1.09,5.77-10.01,2.36-7.06,4.29-13.6,6-19.37,4.19-14.18,6.18-20.5,8.95-20.5.01,0,.03,0,.05,0,2.21.06,4.18,4.51,6.82,15.39,2.12,8.74,4.41,13.38,7,14.17,2.41.73,5.15-1.77,8.32-4.67,3.57-3.26,7.61-6.96,12.41-6.96h12.88v1h-12.88c-4.41,0-8.3,3.56-11.73,6.7-3.39,3.1-6.32,5.79-9.29,4.88-3.04-.93-5.41-5.52-7.68-14.89-2.34-9.67-4.32-14.59-5.87-14.63,0,0-.01,0-.02,0-2.14,0-4.73,8.73-7.99,19.78-1.71,5.78-3.64,12.33-6,19.41-2.43,7.29-4.54,10.7-6.62,10.7Z"/>
      <path class="cls-1" d="m69.92,125.35s-.08,0-.11,0c-4.62-.31-6.82-24.37-10.31-66.87-1.11-13.44-2.25-27.34-3.57-40.41-1.59-15.79-3.27-17.06-3.75-17.07h-.01c-2.97,0-7.48,27.91-10.46,46.38-2.77,17.15-5.39,33.35-7.53,37.22-3.2,5.77-7.39,5.69-10.34,4.6-7.91-2.92-15.13-4.34-22.08-4.34H0v-1h1.75c7.06,0,14.4,1.44,22.42,4.4,3.76,1.39,6.83,0,9.12-4.14,2.06-3.72,4.67-19.84,7.42-36.9C45.46,17.86,48.61,0,52.18,0c.01,0,.02,0,.03,0,1.44.04,3.12,2.21,4.71,17.97,1.32,13.07,2.46,26.98,3.57,40.42,2.65,32.29,5.4,65.68,9.38,65.95.68.04,2.62-1.33,5.69-15.19,2.36-10.63,4.29-20.48,6-29.17,4.18-21.27,6.15-30.71,8.97-30.71,0,0,.01,0,.02,0,1.89.03,3.78,3.96,6.85,23,2.24,13.89,4.67,20.96,7.44,21.62,2.21.53,4.94-3.2,7.81-7.15,3.57-4.92,7.62-10.49,12.47-10.49h12.88v1h-12.88c-4.35,0-8.23,5.35-11.67,10.08-3.21,4.41-5.98,8.23-8.85,7.54-3.29-.79-5.82-7.7-8.19-22.43-2.95-18.29-4.82-22.15-5.88-22.16,0,0,0,0,0,0-2.11,0-4.96,14.52-7.98,29.9-1.71,8.69-3.64,18.54-6,29.19-3.1,13.98-5.16,15.98-6.62,15.98Z"/>
    </g>
  </g>
</svg>