<?xml version="1.0" encoding="utf-8"?>
<!-- Generator: Adobe Illustrator 27.9.0, SVG Export Plug-In . SVG Version: 6.00 Build 0)  -->
<svg version="1.1" id="Layer_2_00000011732361920653406470000016770094076354600374_"
	 xmlns="http://www.w3.org/2000/svg" xmlns:xlink="http://www.w3.org/1999/xlink" x="0px" y="0px" viewBox="0 0 138 145"
	 style="enable-background:new 0 0 138 145;" xml:space="preserve">
<style type="text/css">
	.st0{fill:#FFFFFF;}
</style>
<path class="st0" d="M69.7,129.6h0.2c2.6,0,4.8-3.4,7.5-11.2c2.3-6.8,4.1-13.1,5.8-18.7l0.1-0.4c2.4-8.1,5.3-18.1,6.9-18.8
	c0.4,0.2,2,1.8,4.9,13.6c2.4,9.7,4.8,14.3,8.2,15.4c3.5,1.1,6.5-1.7,10.1-5c3.2-3,6.9-6.3,10.9-6.3H138v-3h-13.7
	c-5.1,0-9.2,3.8-12.9,7.1c-2.8,2.5-5.4,4.9-7.2,4.4c-1.5-0.5-3.8-3.1-6.2-13.3c-2.8-11.7-4.8-15.9-7.7-15.9c-3.4,0-5.2,5.4-9.8,20.9
	l-0.1,0.5c-0.8,2.7-1.6,5.5-2.6,8.5c2.1-9.6,3.9-18.5,5.4-26.4l0.2-0.8c2.3-11.7,5.1-26.1,6.9-28.4c0.6,0.9,2.3,4.7,4.8,20.8
	c2.5,15.4,5,22,8.8,22.9c3.5,0.8,6.4-3.2,9.8-7.8c3.2-4.5,6.9-9.5,10.7-9.5H138v-3h-13.7c-5.3,0-9.4,5.7-13.1,10.7
	c-2.2,3-5.1,7-6.7,6.7c-1.3-0.3-3.8-3.4-6.6-20.5c-3.2-19.8-5.1-23.5-7.7-23.5c-3.5,0-5.2,7.5-9.8,31.1l-0.2,0.8
	c-1.6,8.3-3.5,17.8-5.8,28c-2.5,11.3-4.1,13.7-4.6,14.1c-0.7-0.6-2.3-4-4.3-20.7c-1.5-12.2-2.7-28-4-43.3l-0.1-1.5
	c-1.1-12.8-2.1-26-3.4-38.4C56.4,1.6,54.4,0.1,52.4,0.1c-4,0-6.3,10.7-12.3,47.4c-2.6,16-5.2,32.5-7.2,36c-2,3.6-4.6,4.8-7.8,3.6
	c-8-3-15.4-4.4-22.4-4.4H0v3h2.7c6.7,0,13.7,1.4,21.4,4.2c2.7,1,7.7,1.7,11.4-5c2.2-4,4.8-20,7.5-37c2.2-13.5,6.6-41,9.2-44.6
	c0.5,1,1.7,4.3,2.8,15.7c1.3,12.5,2.4,25.8,3.4,38.6l0.1,1.2c0.2,2.7,0.4,5.2,0.6,7.7c-0.4-2.9-0.8-5.7-1.2-8.5
	c-1.6-10.4-3.4-12.6-5.5-12.7l-0.1,0c-4.1,0-6.9,9.7-12.2,31.8c-2.6,10.5-5.2,21.5-7.1,23.7c-2,2.4-4.7,3.2-8.1,2.4
	c-8-2-15.3-2.9-22.3-2.9H0v3h2.7c6.8,0,13.8,0.9,21.6,2.8c4.5,1.1,8.3-0.1,11.1-3.4c2.3-2.7,4.8-12.9,7.6-24.8l0-0.1
	c2.2-9.2,6.9-28.4,9.3-29.5c0.3,0.3,1.6,1.9,2.8,10.2c0.3,1.8,0.5,3.7,0.8,5.6c-1-2.7-2.2-3.4-3.4-3.5l-0.1,0
	c-4.1,0-6.9,9.7-12.2,31.8c-2.6,10.5-5.2,21.5-7.1,23.7c-2,2.4-4.7,3.2-8.1,2.4c-8-2-15.3-2.9-22.3-2.9H0v3h2.7
	c6.8,0,13.8,0.9,21.6,2.8c4.5,1.1,8.3-0.1,11.1-3.4c2.3-2.7,4.8-12.9,7.6-24.8l0-0.1c2.1-8.5,6.9-28.4,9.3-29.5
	c0.3,0.3,1.6,1.9,2.8,10.2c1.2,8.2,2.3,17,3.4,25.4l0.1,1c3.9,31.4,6,44.3,11,44.8h0.2c2.6,0,4.8-3.4,7.5-11.2
	c2.3-6.8,4.1-13.1,5.8-18.7l0.1-0.5c2.4-8.1,5.3-18.1,6.9-18.8c0.4,0.2,2,1.8,4.9,13.6c2.4,9.7,4.8,14.3,8.2,15.4
	c3.5,1.1,6.5-1.7,10.1-5c3.2-3,6.9-6.3,10.9-6.3H138v-3h-13.7c-5.1,0-9.2,3.8-12.9,7.1c-2.8,2.5-5.4,4.9-7.2,4.4
	c-1.5-0.5-3.8-3.1-6.2-13.3c-2.8-11.7-4.8-15.8-7.7-15.9c-3.4,0-5.2,5.4-9.8,20.9l-0.1,0.5c-1.6,5.5-3.5,11.8-5.8,18.6
	c-3,8.9-4.7,9.2-4.7,9.2c-0.3,0-2-0.8-4.2-13c-0.4-2.2-0.8-4.5-1.2-7C66,127,67.6,129.4,69.7,129.6z M69.8,125.6h0.1
	c0.4,0,0.9-0.1,1.3-0.4c-0.9,1.4-1.3,1.5-1.3,1.5c-0.1,0-0.5-0.2-1.1-1.4C69.1,125.4,69.4,125.5,69.8,125.6z"/>
</svg>
