<?xml version="1.0" encoding="utf-8"?>
<!-- Generator: Adobe Illustrator 27.9.0, SVG Export Plug-In . SVG Version: 6.00 Build 0)  -->
<svg version="1.1" id="Layer_2_00000086674276199440650620000012978898915535407032_"
	 xmlns="http://www.w3.org/2000/svg" xmlns:xlink="http://www.w3.org/1999/xlink" x="0px" y="0px" viewBox="0 0 179.3 104"
	 style="enable-background:new 0 0 179.3 104;" xml:space="preserve">
<style type="text/css">
	.st0{fill:#FFFFFF;}
</style>
<g>
	<path class="st0" d="M175.8,58l-2-1.5c-2.9-2.2-5.4-4.3-7.8-6.5c-7.2-6.8-13.8-15.1-20.7-26.3c-5-8.2-11.5-14.6-19.9-19.6
		c-5.7-3.4-11.7-4.1-17.8-2c-4.5,1.5-8.9,3.9-13.9,7.6c-2.6,1.9-5.2,1.9-7.9,0.1c-2.7-1.9-5.2-3.4-7.5-4.7c-4.9-2.7-9.5-4-14.8-4.2
		c0,0-0.1,0-0.1,0c-0.1,0-0.2,0-0.3,0c-0.2,0.1-0.6,0.1-0.9,0.2c-1.1,0.2-2.7,0.5-4.3,1.2c-2.8,1.2-5.3,2.6-7.5,4.2
		c-4.1,2.9-9.4,7-13.4,12.7c-2.9,4.2-5.8,8.4-8.5,12.4L25,36.5c-3.2,4.7-6.7,8.8-10.5,12.4c-2.7,2.5-5.5,4.8-8.7,7.3
		c-0.9,0.7-1.8,1.4-2.7,2.1c-0.5,0.4-1.2,1-1.2,1.9c-0.1,1,0.7,1.8,0.9,2c2.5,2.5,5.1,3.8,7.9,3.8c9.2,1.5,14.1,9,14.7,9.9
		c0,0,0.1,0.1,0.1,0.1c3.1,3.5,6.6,6.8,10.7,9.9c14.8,11.2,34,17.3,54,17.3c0,0,0.1,0,0.1,0c14.5,0,28.6-3.3,40.7-9.5
		c8.7-4.5,16.7-10.8,23.7-18.7c0,0,0-0.1,0.1-0.1c0.1-0.1,6.4-8.2,13.5-8.8c3.2-0.3,5.8-1.4,7.9-3.5c0.6-0.6,1.4-1.3,1.3-2.4
		C177.4,59.3,176.7,58.7,175.8,58z M63.5,3.6c4.7,0.2,8.9,1.4,13.3,3.9c2.3,1.2,4.6,2.7,7.3,4.6c3.7,2.6,7.6,2.6,11.3-0.1
		c4.7-3.4,8.9-5.7,13.1-7.2c5.4-1.9,10.4-1.3,15.4,1.7c7.9,4.8,14.1,10.9,18.9,18.7c7,11.4,13.8,20,21.2,26.9
		c2.5,2.4,5.2,4.5,7.9,6.6l2.3,1.8c0,0,0.1,0,0.1,0.1c0,0-0.1,0.1-0.1,0.1c-1.6,1.6-3.6,2.5-6.1,2.7c-8.3,0.8-15.2,9.6-15.5,9.9
		c-6.8,7.7-14.5,13.8-22.9,18.1c-28.7,14.7-66.4,11.6-91.7-7.5c-3.9-3-7.2-6-10.2-9.3C27,73.2,21.6,64.9,11,63.2c0,0-0.1,0-0.1,0
		c-2,0-3.9-0.9-5.8-2.7l2.5-2c2.8-2.2,5.9-4.7,8.8-7.4c4-3.7,7.7-8,11-12.9l4.5-6.6c2.5-3.6,5-7.3,7.5-10.9c3.7-5.4,8.7-9.3,12.7-12
		c2.1-1.4,4.4-2.7,7-3.9c1.2-0.5,2.6-0.8,3.6-1C63,3.7,63.3,3.7,63.5,3.6z"/>
	<path class="st0" d="M41.4,23.2c-0.2,0.2-0.2,0.5-0.2,0.7c0,0.3,0.2,0.5,0.4,0.6l0.8,0.6c0.2,0.1,0.4,0.2,0.6,0.2
		c0.3,0,0.6-0.1,0.8-0.4c0.1-0.2,12.1-15.6,21.8-13.5c0.3,0.1,0.5,0,0.7-0.1c0.2-0.1,0.4-0.4,0.4-0.6L67,9.8c0.1-0.5-0.2-1-0.7-1.1
		C54.7,6.1,42.8,21.4,41.4,23.2z"/>
	<path class="st0" d="M89.2,22.1c0.1,0.1,0.2,0.3,0.4,0.3c0.1,0.1,0.3,0.1,0.4,0.1c0.2,0,0.5-0.1,0.6-0.2c0.2-0.1,16.5-13.9,26.1-13
		c0.3,0,0.5-0.1,0.7-0.2c0.2-0.2,0.3-0.4,0.3-0.7l0.1-1c0-0.5-0.3-1-0.9-1.1c-11-1-27.5,13.1-28.2,13.7c-0.4,0.3-0.5,1-0.1,1.4
		L89.2,22.1z"/>
	<path class="st0" d="M58.7,46.8c-0.5,0.4-1,0.8-1.5,1.2c-0.5,0.4-0.9,0.7-1.4,1.1c-2.8,2.3-5.5,4.4-8.7,5.8
		c-0.3,0.1-0.5,0.3-0.7,0.5l-0.2,0.1c0,0,0,0,0,0c-6.8,1-16.9,2-31,2c-0.5,0-1,0.4-1,1v1c0,0.5,0.4,1,1,1c0,0,0.1,0,0.1,0
		c16.6,0,27.7-1.3,34.5-2.5c1.4,0.3,3,1.2,4.6,2.1c0.8,0.4,1.6,0.9,2.4,1.3c1.1,0.6,2.3,1.1,3.3,1.7c4.9,2.5,9.5,4.8,15.6,5.6
		c3.2,0.4,6.5,0.6,9.8,0.6c3.9,0,8-0.2,12.3-0.5c8.4-0.6,14.2-2.1,20.2-5.2c3.9-2,7.9-4.1,11.9-5.3c5.6,0.9,14.1,1.8,25.6,1.8
		c2.1,0,4.3,0,6.9-0.1c0.3,0,0.5-0.1,0.7-0.3c0.2-0.2,0.3-0.4,0.3-0.7l0-1c0-0.5-0.4-0.9-1-0.9c-13.2,0.4-23-0.4-29.6-1.3
		c-3.8-2.3-7.2-4.8-11.3-7.7c-0.6-0.4-1.1-0.8-1.7-1.3c-1.3-1.1-2.7-2.2-4.3-2.9c-4-1.8-8.5-2.2-13.4-1.4c-3,0.5-6,1.5-8.9,3.1
		c-2.4,1.3-4.5,1.3-6.7,0.1c-3.6-2-7.6-3.2-12-3.5c-4.8-0.4-8.3,0.2-11.4,1.8C61.4,44.5,60,45.7,58.7,46.8z"/>
</g>
</svg>
