<?xml version="1.0" encoding="UTF-8"?>
<svg id="Layer_2" data-name="Layer 2" xmlns="http://www.w3.org/2000/svg" viewBox="0 0 179.34 104.02">
  <defs>
    <style>
      .cls-1 {
        fill: #fff;
      }
    </style>
  </defs>
  <g id="Layer_1-2" data-name="Layer 1">
    <g id="SEXUAL">
      <path class="cls-1" d="m90.14,104.02c-19.84,0-39.69-6.02-55.16-17.69-4.19-3.16-7.76-6.45-10.91-10.05-.11-.17-5.38-9.06-15.9-10.73-2.65-.02-5.12-1.22-7.5-3.64-.33-.33-.69-.78-.66-1.32.03-.53.43-.93.87-1.28.91-.74,1.83-1.48,2.75-2.22,3.01-2.41,6.11-4.91,9-7.57,3.99-3.69,7.7-8.04,11.04-12.94l3.63-5.34c2.9-4.27,5.8-8.53,8.74-12.77,4.04-5.84,9.39-9.97,13.6-12.92,2.24-1.57,4.79-2.98,7.6-4.2,1.47-.64,3.05-.94,4.19-1.15.39-.07.73-.14.99-.2l.07-.02h.07c5.3.2,9.87,1.51,14.83,4.24,2.35,1.3,4.87,2.88,7.69,4.84,3.13,2.17,6.27,2.14,9.33-.08,5.06-3.67,9.54-6.12,14.09-7.68,6.09-2.1,12-1.45,17.58,1.93,8.49,5.13,15.09,11.65,20.2,19.94,7.17,11.65,14.01,20.36,21.52,27.41,2.59,2.43,5.42,4.65,8.17,6.79.68.53,1.35,1.06,2.03,1.59.85.67,1.32,1.05,1.35,1.62.03.55-.38,1-1.07,1.67-2,1.97-4.46,3.07-7.53,3.35-7.75.71-14.56,9.41-14.63,9.5l-.02.02c-7.16,8.13-15.31,14.57-24.22,19.14-12.77,6.54-27.25,9.75-41.73,9.75ZM62.58,1c-.27.06-.6.13-.97.2-1.1.21-2.61.49-3.98,1.09-2.74,1.19-5.24,2.57-7.42,4.1-4.14,2.9-9.4,6.96-13.35,12.67-2.93,4.23-5.83,8.5-8.73,12.76l-3.64,5.34c-3.38,4.96-7.15,9.37-11.19,13.11-2.91,2.69-6.03,5.2-9.05,7.62-.92.74-1.83,1.47-2.75,2.21-.4.33-.49.49-.5.56,0,.05.03.2.38.56,2.18,2.23,4.43,3.32,6.87,3.35,11.08,1.75,16.57,11.05,16.62,11.15,3.05,3.47,6.57,6.71,10.71,9.83,26.48,19.97,65.89,23.2,95.83,7.85,8.8-4.51,16.85-10.87,23.92-18.9.41-.53,7.22-9.13,15.32-9.87,2.83-.26,5.09-1.26,6.92-3.07.23-.22.76-.75.77-.91-.03-.14-.56-.55-.98-.89-.67-.53-1.35-1.06-2.02-1.59-2.76-2.16-5.62-4.39-8.24-6.85-7.58-7.11-14.47-15.89-21.69-27.61-5.02-8.15-11.51-14.56-19.86-19.61-5.39-3.26-10.86-3.86-16.74-1.84-4.45,1.53-8.85,3.93-13.83,7.55-3.45,2.5-6.98,2.53-10.49.09-2.79-1.94-5.28-3.5-7.61-4.78-4.79-2.64-9.21-3.91-14.32-4.11ZM12.79,59.64h0v-1c32.17,0,44.17-4.76,44.29-4.81l.38.92c-.49.2-12.25,4.88-44.67,4.88Zm144.93-.56c-23.6,0-34.74-3.7-34.86-3.74l.32-.95c.13.04,13.33,4.42,41.57,3.58l.03,1c-2.46.07-4.82.11-7.06.11Z"/>
      <path class="cls-1" d="m41.44,23.44l-.8-.6c.53-.7,13.1-17.19,24.6-14.69l-.21.98c-10.86-2.36-23.46,14.15-23.58,14.31Z"/>
      <path class="cls-1" d="m89.99,20.57l-.65-.76c.71-.61,17.55-14.87,28.43-13.88l-.09,1c-10.47-.95-27.52,13.5-27.69,13.65Z"/>
      <path class="cls-1" d="m133.5,56.62c.09-.02.19-.04.28-.06-4.15-2.52-8.02-5.29-11.96-8.13-1.98-1.43-3.83-3.21-5.99-4.17-4.25-1.89-8.77-2.14-13.32-1.38-3.11.52-6.07,1.59-8.88,3.09-2.62,1.4-5.18,1.61-7.85.14-3.75-2.07-7.77-3.17-11.98-3.5-3.86-.3-7.71-.09-11.22,1.72-2.09,1.08-3.88,2.83-5.77,4.32-3.39,2.67-6.67,5.53-10.64,7.21-.26.11-.48.33-.71.5,0,.12.02.23.03.35.49.07,1,.24,1.48.19,2.8-.31,6.12,2.16,9.23,3.65,6.54,3.15,11.78,6.39,19.22,7.4s15.06.58,22.55.08c7.56-.51,13.8-1.77,20.52-5.26,4.98-2.58,9.86-5.09,15-6.16Z"/>
    </g>
  </g>
</svg>