<?xml version="1.0" encoding="UTF-8"?>
<svg id="Layer_2" data-name="Layer 2" xmlns="http://www.w3.org/2000/svg" viewBox="0 0 125.04 124.99">
  <defs>
    <style>
      .cls-1 {
        fill: #fff;
      }
    </style>
  </defs>
  <g id="Layer_1-2" data-name="Layer 1">
    <g id="Vinyl_icon" data-name="Vinyl icon">
      <path class="cls-1" d="m62.52,124.99c-16.01,0-32.02-6.09-44.21-18.28S0,79.19,0,62.49C0,45.79,6.51,30.09,18.31,18.28h0s0,0,0,0c24.38-24.38,64.04-24.38,88.42,0,11.81,11.81,18.31,27.51,18.31,44.21,0,16.7-6.5,32.4-18.31,44.21s-28.2,18.28-44.21,18.28ZM62.52,1c-15.76,0-31.51,6-43.5,17.99h0C7.4,30.61,1,46.06,1,62.49c0,16.43,6.4,31.88,18.02,43.5,23.99,23.99,63.02,23.99,87.01,0,11.62-11.62,18.02-27.07,18.02-43.5,0-16.43-6.4-31.88-18.02-43.5C94.03,7,78.27,1,62.52,1Z"/>
      <path class="cls-1" d="m79.58,112.91l-.32-.95c7.65-2.58,14.44-6.8,20.19-12.55,5.75-5.75,9.97-12.54,12.55-20.19l.95.32c-2.63,7.79-6.93,14.72-12.79,20.58-5.86,5.86-12.78,10.16-20.58,12.79ZM13.05,45.76l-.95-.32c2.63-7.79,6.93-14.72,12.79-20.58,5.86-5.86,12.78-10.16,20.58-12.79l.32.95c-7.65,2.58-14.44,6.8-20.19,12.55-5.75,5.75-9.97,12.54-12.55,20.19Z"/>
      <path class="cls-1" d="m76.55,103.97l-.32-.95c6.27-2.11,11.83-5.57,16.54-10.28s8.17-10.27,10.28-16.54l.95.32c-2.16,6.41-5.7,12.11-10.52,16.93-4.82,4.82-10.51,8.36-16.93,10.52ZM21.99,48.78l-.95-.32c2.16-6.41,5.7-12.11,10.52-16.92s10.51-8.36,16.92-10.52l.32.95c-6.26,2.11-11.83,5.57-16.54,10.28-4.71,4.71-8.17,10.27-10.28,16.54Z"/>
      <path class="cls-1" d="m73.62,95.3l-.32-.95c4.93-1.66,9.3-4.38,13-8.08,3.7-3.7,6.42-8.08,8.08-13l.95.32c-1.71,5.07-4.51,9.58-8.33,13.39-3.81,3.81-8.32,6.61-13.39,8.32ZM30.66,51.71l-.95-.32c1.71-5.07,4.51-9.58,8.32-13.39,3.81-3.81,8.32-6.61,13.39-8.32l.32.95c-4.93,1.66-9.3,4.38-13,8.08-3.7,3.7-6.42,8.08-8.08,13Z"/>
      <path class="cls-1" d="m62.46,88.08c-6.66,0-13.13-2.61-18.02-7.51-6.92-6.92-9.28-16.99-6.15-26.28,1.26-3.74,3.33-7.07,6.15-9.88,2.81-2.81,6.14-4.88,9.89-6.15,9.29-3.13,19.35-.78,26.28,6.15,6.92,6.92,9.28,16.99,6.15,26.27-1.26,3.75-3.33,7.07-6.15,9.89-2.82,2.82-6.14,4.88-9.89,6.15-2.72.92-5.5,1.36-8.25,1.36Zm.11-50.18c-2.64,0-5.32.43-7.93,1.31-3.6,1.21-6.79,3.2-9.5,5.91-2.71,2.71-4.69,5.9-5.91,9.5-3.01,8.92-.75,18.6,5.91,25.25,6.65,6.65,16.33,8.92,25.25,5.91,3.6-1.21,6.79-3.2,9.5-5.91,2.71-2.71,4.69-5.9,5.91-9.5,3.01-8.92.74-18.59-5.91-25.25-4.71-4.71-10.93-7.22-17.32-7.22Zm-.06,28.7c-1.07,0-2.11-.42-2.9-1.21-1.11-1.11-1.49-2.73-.99-4.22.2-.6.54-1.14.99-1.59s.99-.78,1.59-.99c1.49-.51,3.11-.13,4.22.99,1.11,1.11,1.49,2.73.99,4.22h0c-.21.6-.54,1.14-.99,1.59-.45.45-1,.79-1.59.99-.44.15-.88.22-1.33.22Zm.02-7.23c-.33,0-.67.05-1,.17-.46.15-.86.4-1.2.75s-.59.75-.75,1.2c-.38,1.13-.1,2.35.75,3.2.84.84,2.07,1.13,3.2.75.46-.15.86-.41,1.2-.75.34-.34.59-.75.75-1.2.38-1.13.09-2.35-.75-3.2-.6-.6-1.38-.91-2.19-.91Z"/>
    </g>
  </g>
</svg>