<?xml version="1.0" encoding="utf-8"?>
<!-- Generator: Adobe Illustrator 27.9.0, SVG Export Plug-In . SVG Version: 6.00 Build 0)  -->
<svg version="1.1" id="Layer_2_00000132787597461876588300000017293015264355143067_"
	 xmlns="http://www.w3.org/2000/svg" xmlns:xlink="http://www.w3.org/1999/xlink" x="0px" y="0px" viewBox="0 0 125 125"
	 style="enable-background:new 0 0 125 125;" xml:space="preserve">
<style type="text/css">
	.st0{fill:#FFFFFF;}
</style>
<g>
	<path class="st0" d="M106.7,18.3c-24.4-24.4-64-24.4-88.4,0C6.5,30.1,0,45.8,0,62.5c0,16.9,6.3,32.2,18.3,44.2
		C30.1,118.5,45.8,125,62.5,125c16.5,0,32.6-6.7,44.2-18.3C118.5,94.9,125,79.2,125,62.5C125,45.8,118.5,30.1,106.7,18.3z
		 M62.5,121.9c-15.9,0-30.8-6.2-42-17.4C9.3,93.3,3.1,78.4,3.1,62.5s6.2-30.8,17.4-42C31.7,9.3,46.6,3.1,62.5,3.1s30.8,6.2,42,17.4
		c11.2,11.2,17.4,26.1,17.4,42s-6.2,30.8-17.4,42C93.3,115.7,78.4,121.9,62.5,121.9z"/>
	<path class="st0" d="M110.6,77.6l-0.3,1c-2.5,7.3-6.6,13.9-12.1,19.4c-5.6,5.6-12.1,9.7-19.4,12.1l-1,0.3l1,2.9l1-0.3
		c7.8-2.6,14.7-6.9,20.7-12.8c5.9-5.9,10.2-12.9,12.8-20.7l0.3-1L110.6,77.6z"/>
	<path class="st0" d="M46.5,14.8l1-0.3l-1-2.9l-1,0.3c-7.8,2.6-14.7,6.9-20.7,12.8C19,30.7,14.6,37.7,12,45.5l-0.3,1l2.9,1l0.3-1
		c2.3-7.2,6.4-13.7,12.1-19.4C32.6,21.4,39.2,17.3,46.5,14.8z"/>
	<path class="st0" d="M49.4,23.7l1-0.3l-0.9-3l-1,0.4c-6.5,2.2-12.3,5.8-17.1,10.7c-4.8,4.8-8.3,10.5-10.6,17l-0.4,1l3,0.9l0.3-1
		c2-5.9,5.3-11.2,9.9-15.8C38.1,29,43.5,25.7,49.4,23.7z"/>
	<path class="st0" d="M104.3,76.7l0.3-1l-2.9-1l-0.3,1c-2,6-5.3,11.3-9.9,15.8c-4.6,4.6-9.9,7.9-15.8,9.9l-1,0.3l1,2.9l1-0.3
		c6.5-2.2,12.2-5.8,17-10.6C98.5,88.9,102.1,83.2,104.3,76.7z"/>
	<path class="st0" d="M52.2,32.2l1-0.3l-0.9-3l-1,0.3c-5.1,1.7-9.7,4.5-13.6,8.4c-3.9,3.9-6.7,8.4-8.4,13.6l-0.3,1l3,0.9l0.3-1
		c1.5-4.7,4.1-8.8,7.6-12.3C43.3,36.5,47.5,33.9,52.2,32.2z"/>
	<path class="st0" d="M95.7,73.7l0.3-1l-2.9-1l-0.3,1c-1.6,4.7-4.2,8.9-7.7,12.4c-3.5,3.5-7.6,6.1-12.4,7.7l-1,0.3l1,2.9l1-0.3
		c5.1-1.7,9.7-4.5,13.6-8.4C91.2,83.5,94,78.9,95.7,73.7z"/>
	<path class="st0" d="M60.9,57.7c-0.8,0.3-1.4,0.6-2,1.2s-1,1.2-1.2,2c-0.6,1.8-0.1,3.8,1.2,5.2c1,1,2.2,1.5,3.6,1.5
		c0.4,0,0.9-0.1,1.6-0.3c0.8-0.3,1.4-0.6,2-1.2c0.6-0.6,1-1.2,1.2-2c0.6-1.8,0.1-3.8-1.2-5.2C64.7,57.5,62.7,57,60.9,57.7z
		 M64.5,63.2c-0.2,0.3-0.4,0.6-0.7,1c-0.1,0.2-0.3,0.3-0.7,0.4c-0.7,0.2-1.6,0-2.1-0.5c-0.6-0.6-0.8-1.3-0.6-2
		c0.2-0.3,0.4-0.6,0.7-1c0.1-0.2,0.3-0.3,0.7-0.4l0.2-0.1c0.1,0,0.3,0,0.4,0c0.4,0,0.9,0.1,1.4,0.7C64.5,61.8,64.7,62.5,64.5,63.2z"
		/>
	<path class="st0" d="M87.5,70.9c3.2-9.5,0.7-19.8-6.3-26.9c-7-7.1-17.3-9.6-27-6.4c-3.8,1.3-7.2,3.4-10.1,6.3
		c-2.8,2.7-4.9,6.1-6.4,10.2C34.5,63.6,37,73.9,44.1,81c5,5,11.5,7.7,18.4,7.7c2.6,0,5.3-0.4,8.5-1.3c3.7-1.3,7-3.3,10.1-6.3
		C84,78.3,86.1,74.9,87.5,70.9z M84.4,69.8c-1.1,3.4-3,6.4-5.5,8.9c-2.6,2.6-5.6,4.4-8.9,5.5c-8.4,2.8-17.4,0.7-23.7-5.6
		c-6.3-6.2-8.4-15.2-5.5-23.7c1.1-3.4,3-6.4,5.5-8.9c2.6-2.6,5.6-4.4,8.9-5.5c2.3-0.8,4.8-1.2,7.4-1.2c6.1,0,11.9,2.4,16.3,6.8
		C85.1,52.4,87.2,61.5,84.4,69.8z"/>
</g>
</svg>
